<?xml version="1.0" encoding="utf-8" standalone="no"?>
<!DOCTYPE svg PUBLIC "-//W3C//DTD SVG 1.1//EN"
  "http://www.w3.org/Graphics/SVG/1.1/DTD/svg11.dtd">
<!-- Created with matplotlib (https://matplotlib.org/) -->
<svg height="288pt" version="1.1" viewBox="0 0 432 288" width="432pt" xmlns="http://www.w3.org/2000/svg" xmlns:xlink="http://www.w3.org/1999/xlink">
 <defs>
  <style type="text/css">
*{stroke-linecap:butt;stroke-linejoin:round;}
  </style>
 </defs>
 <g id="figure_1">
  <g id="patch_1">
   <path d="M 0 288 
L 432 288 
L 432 0 
L 0 0 
z
"/>
  </g>
  <g id="axes_1">
   <g id="patch_2">
    <path d="M 54 252 
L 388.8 252 
L 388.8 34.56 
L 54 34.56 
z
"/>
   </g>
   <g id="matplotlib.axis_1">
    <g id="xtick_1">
     <g id="line2d_1">
      <path clip-path="url(#p4b9f1ed472)" d="M 69.218182 252 
L 69.218182 34.56 
" style="fill:none;stroke:#ffffff;stroke-linecap:square;stroke-width:0.8;"/>
     </g>
     <g id="line2d_2">
      <defs>
       <path d="M 0 0 
L 0 3.5 
" id="m889afbbc18" style="stroke:#ffffff;stroke-width:0.8;"/>
      </defs>
      <g>
       <use style="fill:#ffffff;stroke:#ffffff;stroke-width:0.8;" x="69.218182" xlink:href="#m889afbbc18" y="252"/>
      </g>
     </g>
     <g id="text_1">
      <!-- 0 -->
      <defs>
       <path d="M 31.78125 66.40625 
Q 24.171875 66.40625 20.328125 58.90625 
Q 16.5 51.421875 16.5 36.375 
Q 16.5 21.390625 20.328125 13.890625 
Q 24.171875 6.390625 31.78125 6.390625 
Q 39.453125 6.390625 43.28125 13.890625 
Q 47.125 21.390625 47.125 36.375 
Q 47.125 51.421875 43.28125 58.90625 
Q 39.453125 66.40625 31.78125 66.40625 
z
M 31.78125 74.21875 
Q 44.046875 74.21875 50.515625 64.515625 
Q 56.984375 54.828125 56.984375 36.375 
Q 56.984375 17.96875 50.515625 8.265625 
Q 44.046875 -1.421875 31.78125 -1.421875 
Q 19.53125 -1.421875 13.0625 8.265625 
Q 6.59375 17.96875 6.59375 36.375 
Q 6.59375 54.828125 13.0625 64.515625 
Q 19.53125 74.21875 31.78125 74.21875 
z
" id="DejaVuSans-48"/>
      </defs>
      <g style="fill:#ffffff;" transform="translate(66.036932 266.598437)scale(0.1 -0.1)">
       <use xlink:href="#DejaVuSans-48"/>
      </g>
     </g>
    </g>
    <g id="xtick_2">
     <g id="line2d_3">
      <path clip-path="url(#p4b9f1ed472)" d="M 107.263636 252 
L 107.263636 34.56 
" style="fill:none;stroke:#ffffff;stroke-linecap:square;stroke-width:0.8;"/>
     </g>
     <g id="line2d_4">
      <g>
       <use style="fill:#ffffff;stroke:#ffffff;stroke-width:0.8;" x="107.263636" xlink:href="#m889afbbc18" y="252"/>
      </g>
     </g>
     <g id="text_2">
      <!-- 25 -->
      <defs>
       <path d="M 19.1875 8.296875 
L 53.609375 8.296875 
L 53.609375 0 
L 7.328125 0 
L 7.328125 8.296875 
Q 12.9375 14.109375 22.625 23.890625 
Q 32.328125 33.6875 34.8125 36.53125 
Q 39.546875 41.84375 41.421875 45.53125 
Q 43.3125 49.21875 43.3125 52.78125 
Q 43.3125 58.59375 39.234375 62.25 
Q 35.15625 65.921875 28.609375 65.921875 
Q 23.96875 65.921875 18.8125 64.3125 
Q 13.671875 62.703125 7.8125 59.421875 
L 7.8125 69.390625 
Q 13.765625 71.78125 18.9375 73 
Q 24.125 74.21875 28.421875 74.21875 
Q 39.75 74.21875 46.484375 68.546875 
Q 53.21875 62.890625 53.21875 53.421875 
Q 53.21875 48.921875 51.53125 44.890625 
Q 49.859375 40.875 45.40625 35.40625 
Q 44.1875 33.984375 37.640625 27.21875 
Q 31.109375 20.453125 19.1875 8.296875 
z
" id="DejaVuSans-50"/>
       <path d="M 10.796875 72.90625 
L 49.515625 72.90625 
L 49.515625 64.59375 
L 19.828125 64.59375 
L 19.828125 46.734375 
Q 21.96875 47.46875 24.109375 47.828125 
Q 26.265625 48.1875 28.421875 48.1875 
Q 40.625 48.1875 47.75 41.5 
Q 54.890625 34.8125 54.890625 23.390625 
Q 54.890625 11.625 47.5625 5.09375 
Q 40.234375 -1.421875 26.90625 -1.421875 
Q 22.3125 -1.421875 17.546875 -0.640625 
Q 12.796875 0.140625 7.71875 1.703125 
L 7.71875 11.625 
Q 12.109375 9.234375 16.796875 8.0625 
Q 21.484375 6.890625 26.703125 6.890625 
Q 35.15625 6.890625 40.078125 11.328125 
Q 45.015625 15.765625 45.015625 23.390625 
Q 45.015625 31 40.078125 35.4375 
Q 35.15625 39.890625 26.703125 39.890625 
Q 22.75 39.890625 18.8125 39.015625 
Q 14.890625 38.140625 10.796875 36.28125 
z
" id="DejaVuSans-53"/>
      </defs>
      <g style="fill:#ffffff;" transform="translate(100.901136 266.598437)scale(0.1 -0.1)">
       <use xlink:href="#DejaVuSans-50"/>
       <use x="63.623047" xlink:href="#DejaVuSans-53"/>
      </g>
     </g>
    </g>
    <g id="xtick_3">
     <g id="line2d_5">
      <path clip-path="url(#p4b9f1ed472)" d="M 145.309091 252 
L 145.309091 34.56 
" style="fill:none;stroke:#ffffff;stroke-linecap:square;stroke-width:0.8;"/>
     </g>
     <g id="line2d_6">
      <g>
       <use style="fill:#ffffff;stroke:#ffffff;stroke-width:0.8;" x="145.309091" xlink:href="#m889afbbc18" y="252"/>
      </g>
     </g>
     <g id="text_3">
      <!-- 50 -->
      <g style="fill:#ffffff;" transform="translate(138.946591 266.598437)scale(0.1 -0.1)">
       <use xlink:href="#DejaVuSans-53"/>
       <use x="63.623047" xlink:href="#DejaVuSans-48"/>
      </g>
     </g>
    </g>
    <g id="xtick_4">
     <g id="line2d_7">
      <path clip-path="url(#p4b9f1ed472)" d="M 183.354545 252 
L 183.354545 34.56 
" style="fill:none;stroke:#ffffff;stroke-linecap:square;stroke-width:0.8;"/>
     </g>
     <g id="line2d_8">
      <g>
       <use style="fill:#ffffff;stroke:#ffffff;stroke-width:0.8;" x="183.354545" xlink:href="#m889afbbc18" y="252"/>
      </g>
     </g>
     <g id="text_4">
      <!-- 75 -->
      <defs>
       <path d="M 8.203125 72.90625 
L 55.078125 72.90625 
L 55.078125 68.703125 
L 28.609375 0 
L 18.3125 0 
L 43.21875 64.59375 
L 8.203125 64.59375 
z
" id="DejaVuSans-55"/>
      </defs>
      <g style="fill:#ffffff;" transform="translate(176.992045 266.598437)scale(0.1 -0.1)">
       <use xlink:href="#DejaVuSans-55"/>
       <use x="63.623047" xlink:href="#DejaVuSans-53"/>
      </g>
     </g>
    </g>
    <g id="xtick_5">
     <g id="line2d_9">
      <path clip-path="url(#p4b9f1ed472)" d="M 221.4 252 
L 221.4 34.56 
" style="fill:none;stroke:#ffffff;stroke-linecap:square;stroke-width:0.8;"/>
     </g>
     <g id="line2d_10">
      <g>
       <use style="fill:#ffffff;stroke:#ffffff;stroke-width:0.8;" x="221.4" xlink:href="#m889afbbc18" y="252"/>
      </g>
     </g>
     <g id="text_5">
      <!-- 100 -->
      <defs>
       <path d="M 12.40625 8.296875 
L 28.515625 8.296875 
L 28.515625 63.921875 
L 10.984375 60.40625 
L 10.984375 69.390625 
L 28.421875 72.90625 
L 38.28125 72.90625 
L 38.28125 8.296875 
L 54.390625 8.296875 
L 54.390625 0 
L 12.40625 0 
z
" id="DejaVuSans-49"/>
      </defs>
      <g style="fill:#ffffff;" transform="translate(211.85625 266.598437)scale(0.1 -0.1)">
       <use xlink:href="#DejaVuSans-49"/>
       <use x="63.623047" xlink:href="#DejaVuSans-48"/>
       <use x="127.246094" xlink:href="#DejaVuSans-48"/>
      </g>
     </g>
    </g>
    <g id="xtick_6">
     <g id="line2d_11">
      <path clip-path="url(#p4b9f1ed472)" d="M 259.445455 252 
L 259.445455 34.56 
" style="fill:none;stroke:#ffffff;stroke-linecap:square;stroke-width:0.8;"/>
     </g>
     <g id="line2d_12">
      <g>
       <use style="fill:#ffffff;stroke:#ffffff;stroke-width:0.8;" x="259.445455" xlink:href="#m889afbbc18" y="252"/>
      </g>
     </g>
     <g id="text_6">
      <!-- 125 -->
      <g style="fill:#ffffff;" transform="translate(249.901705 266.598437)scale(0.1 -0.1)">
       <use xlink:href="#DejaVuSans-49"/>
       <use x="63.623047" xlink:href="#DejaVuSans-50"/>
       <use x="127.246094" xlink:href="#DejaVuSans-53"/>
      </g>
     </g>
    </g>
    <g id="xtick_7">
     <g id="line2d_13">
      <path clip-path="url(#p4b9f1ed472)" d="M 297.490909 252 
L 297.490909 34.56 
" style="fill:none;stroke:#ffffff;stroke-linecap:square;stroke-width:0.8;"/>
     </g>
     <g id="line2d_14">
      <g>
       <use style="fill:#ffffff;stroke:#ffffff;stroke-width:0.8;" x="297.490909" xlink:href="#m889afbbc18" y="252"/>
      </g>
     </g>
     <g id="text_7">
      <!-- 150 -->
      <g style="fill:#ffffff;" transform="translate(287.947159 266.598437)scale(0.1 -0.1)">
       <use xlink:href="#DejaVuSans-49"/>
       <use x="63.623047" xlink:href="#DejaVuSans-53"/>
       <use x="127.246094" xlink:href="#DejaVuSans-48"/>
      </g>
     </g>
    </g>
    <g id="xtick_8">
     <g id="line2d_15">
      <path clip-path="url(#p4b9f1ed472)" d="M 335.536364 252 
L 335.536364 34.56 
" style="fill:none;stroke:#ffffff;stroke-linecap:square;stroke-width:0.8;"/>
     </g>
     <g id="line2d_16">
      <g>
       <use style="fill:#ffffff;stroke:#ffffff;stroke-width:0.8;" x="335.536364" xlink:href="#m889afbbc18" y="252"/>
      </g>
     </g>
     <g id="text_8">
      <!-- 175 -->
      <g style="fill:#ffffff;" transform="translate(325.992614 266.598437)scale(0.1 -0.1)">
       <use xlink:href="#DejaVuSans-49"/>
       <use x="63.623047" xlink:href="#DejaVuSans-55"/>
       <use x="127.246094" xlink:href="#DejaVuSans-53"/>
      </g>
     </g>
    </g>
    <g id="xtick_9">
     <g id="line2d_17">
      <path clip-path="url(#p4b9f1ed472)" d="M 373.581818 252 
L 373.581818 34.56 
" style="fill:none;stroke:#ffffff;stroke-linecap:square;stroke-width:0.8;"/>
     </g>
     <g id="line2d_18">
      <g>
       <use style="fill:#ffffff;stroke:#ffffff;stroke-width:0.8;" x="373.581818" xlink:href="#m889afbbc18" y="252"/>
      </g>
     </g>
     <g id="text_9">
      <!-- 200 -->
      <g style="fill:#ffffff;" transform="translate(364.038068 266.598437)scale(0.1 -0.1)">
       <use xlink:href="#DejaVuSans-50"/>
       <use x="63.623047" xlink:href="#DejaVuSans-48"/>
       <use x="127.246094" xlink:href="#DejaVuSans-48"/>
      </g>
     </g>
    </g>
    <g id="text_10">
     <!-- Time -->
     <defs>
      <path d="M -0.296875 72.90625 
L 61.375 72.90625 
L 61.375 64.59375 
L 35.5 64.59375 
L 35.5 0 
L 25.59375 0 
L 25.59375 64.59375 
L -0.296875 64.59375 
z
" id="DejaVuSans-84"/>
      <path d="M 9.421875 54.6875 
L 18.40625 54.6875 
L 18.40625 0 
L 9.421875 0 
z
M 9.421875 75.984375 
L 18.40625 75.984375 
L 18.40625 64.59375 
L 9.421875 64.59375 
z
" id="DejaVuSans-105"/>
      <path d="M 52 44.1875 
Q 55.375 50.25 60.0625 53.125 
Q 64.75 56 71.09375 56 
Q 79.640625 56 84.28125 50.015625 
Q 88.921875 44.046875 88.921875 33.015625 
L 88.921875 0 
L 79.890625 0 
L 79.890625 32.71875 
Q 79.890625 40.578125 77.09375 44.375 
Q 74.3125 48.1875 68.609375 48.1875 
Q 61.625 48.1875 57.5625 43.546875 
Q 53.515625 38.921875 53.515625 30.90625 
L 53.515625 0 
L 44.484375 0 
L 44.484375 32.71875 
Q 44.484375 40.625 41.703125 44.40625 
Q 38.921875 48.1875 33.109375 48.1875 
Q 26.21875 48.1875 22.15625 43.53125 
Q 18.109375 38.875 18.109375 30.90625 
L 18.109375 0 
L 9.078125 0 
L 9.078125 54.6875 
L 18.109375 54.6875 
L 18.109375 46.1875 
Q 21.1875 51.21875 25.484375 53.609375 
Q 29.78125 56 35.6875 56 
Q 41.65625 56 45.828125 52.96875 
Q 50 49.953125 52 44.1875 
z
" id="DejaVuSans-109"/>
      <path d="M 56.203125 29.59375 
L 56.203125 25.203125 
L 14.890625 25.203125 
Q 15.484375 15.921875 20.484375 11.0625 
Q 25.484375 6.203125 34.421875 6.203125 
Q 39.59375 6.203125 44.453125 7.46875 
Q 49.3125 8.734375 54.109375 11.28125 
L 54.109375 2.78125 
Q 49.265625 0.734375 44.1875 -0.34375 
Q 39.109375 -1.421875 33.890625 -1.421875 
Q 20.796875 -1.421875 13.15625 6.1875 
Q 5.515625 13.8125 5.515625 26.8125 
Q 5.515625 40.234375 12.765625 48.109375 
Q 20.015625 56 32.328125 56 
Q 43.359375 56 49.78125 48.890625 
Q 56.203125 41.796875 56.203125 29.59375 
z
M 47.21875 32.234375 
Q 47.125 39.59375 43.09375 43.984375 
Q 39.0625 48.390625 32.421875 48.390625 
Q 24.90625 48.390625 20.390625 44.140625 
Q 15.875 39.890625 15.1875 32.171875 
z
" id="DejaVuSans-101"/>
     </defs>
     <g style="fill:#ffffff;" transform="translate(209.166406 280.276563)scale(0.1 -0.1)">
      <use xlink:href="#DejaVuSans-84"/>
      <use x="57.958984" xlink:href="#DejaVuSans-105"/>
      <use x="85.742188" xlink:href="#DejaVuSans-109"/>
      <use x="183.154297" xlink:href="#DejaVuSans-101"/>
     </g>
    </g>
   </g>
   <g id="matplotlib.axis_2">
    <g id="ytick_1">
     <g id="line2d_19">
      <path clip-path="url(#p4b9f1ed472)" d="M 54 217.058366 
L 388.8 217.058366 
" style="fill:none;stroke:#ffffff;stroke-linecap:square;stroke-width:0.8;"/>
     </g>
     <g id="line2d_20">
      <defs>
       <path d="M 0 0 
L -3.5 0 
" id="m5c2c5f46e0" style="stroke:#ffffff;stroke-width:0.8;"/>
      </defs>
      <g>
       <use style="fill:#ffffff;stroke:#ffffff;stroke-width:0.8;" x="54" xlink:href="#m5c2c5f46e0" y="217.058366"/>
      </g>
     </g>
     <g id="text_11">
      <!-- $\mathdefault{10^{0}}$ -->
      <g style="fill:#ffffff;" transform="translate(29.4 220.857584)scale(0.1 -0.1)">
       <use transform="translate(0 0.765625)" xlink:href="#DejaVuSans-49"/>
       <use transform="translate(63.623047 0.765625)" xlink:href="#DejaVuSans-48"/>
       <use transform="translate(128.203125 39.046875)scale(0.7)" xlink:href="#DejaVuSans-48"/>
      </g>
     </g>
    </g>
    <g id="ytick_2">
     <g id="line2d_21">
      <path clip-path="url(#p4b9f1ed472)" d="M 54 175.810069 
L 388.8 175.810069 
" style="fill:none;stroke:#ffffff;stroke-linecap:square;stroke-width:0.8;"/>
     </g>
     <g id="line2d_22">
      <g>
       <use style="fill:#ffffff;stroke:#ffffff;stroke-width:0.8;" x="54" xlink:href="#m5c2c5f46e0" y="175.810069"/>
      </g>
     </g>
     <g id="text_12">
      <!-- $\mathdefault{10^{2}}$ -->
      <g style="fill:#ffffff;" transform="translate(29.4 179.609287)scale(0.1 -0.1)">
       <use transform="translate(0 0.765625)" xlink:href="#DejaVuSans-49"/>
       <use transform="translate(63.623047 0.765625)" xlink:href="#DejaVuSans-48"/>
       <use transform="translate(128.203125 39.046875)scale(0.7)" xlink:href="#DejaVuSans-50"/>
      </g>
     </g>
    </g>
    <g id="ytick_3">
     <g id="line2d_23">
      <path clip-path="url(#p4b9f1ed472)" d="M 54 134.561772 
L 388.8 134.561772 
" style="fill:none;stroke:#ffffff;stroke-linecap:square;stroke-width:0.8;"/>
     </g>
     <g id="line2d_24">
      <g>
       <use style="fill:#ffffff;stroke:#ffffff;stroke-width:0.8;" x="54" xlink:href="#m5c2c5f46e0" y="134.561772"/>
      </g>
     </g>
     <g id="text_13">
      <!-- $\mathdefault{10^{4}}$ -->
      <defs>
       <path d="M 37.796875 64.3125 
L 12.890625 25.390625 
L 37.796875 25.390625 
z
M 35.203125 72.90625 
L 47.609375 72.90625 
L 47.609375 25.390625 
L 58.015625 25.390625 
L 58.015625 17.1875 
L 47.609375 17.1875 
L 47.609375 0 
L 37.796875 0 
L 37.796875 17.1875 
L 4.890625 17.1875 
L 4.890625 26.703125 
z
" id="DejaVuSans-52"/>
      </defs>
      <g style="fill:#ffffff;" transform="translate(29.4 138.36099)scale(0.1 -0.1)">
       <use transform="translate(0 0.684375)" xlink:href="#DejaVuSans-49"/>
       <use transform="translate(63.623047 0.684375)" xlink:href="#DejaVuSans-48"/>
       <use transform="translate(128.203125 38.965625)scale(0.7)" xlink:href="#DejaVuSans-52"/>
      </g>
     </g>
    </g>
    <g id="ytick_4">
     <g id="line2d_25">
      <path clip-path="url(#p4b9f1ed472)" d="M 54 93.313475 
L 388.8 93.313475 
" style="fill:none;stroke:#ffffff;stroke-linecap:square;stroke-width:0.8;"/>
     </g>
     <g id="line2d_26">
      <g>
       <use style="fill:#ffffff;stroke:#ffffff;stroke-width:0.8;" x="54" xlink:href="#m5c2c5f46e0" y="93.313475"/>
      </g>
     </g>
     <g id="text_14">
      <!-- $\mathdefault{10^{6}}$ -->
      <defs>
       <path d="M 33.015625 40.375 
Q 26.375 40.375 22.484375 35.828125 
Q 18.609375 31.296875 18.609375 23.390625 
Q 18.609375 15.53125 22.484375 10.953125 
Q 26.375 6.390625 33.015625 6.390625 
Q 39.65625 6.390625 43.53125 10.953125 
Q 47.40625 15.53125 47.40625 23.390625 
Q 47.40625 31.296875 43.53125 35.828125 
Q 39.65625 40.375 33.015625 40.375 
z
M 52.59375 71.296875 
L 52.59375 62.3125 
Q 48.875 64.0625 45.09375 64.984375 
Q 41.3125 65.921875 37.59375 65.921875 
Q 27.828125 65.921875 22.671875 59.328125 
Q 17.53125 52.734375 16.796875 39.40625 
Q 19.671875 43.65625 24.015625 45.921875 
Q 28.375 48.1875 33.59375 48.1875 
Q 44.578125 48.1875 50.953125 41.515625 
Q 57.328125 34.859375 57.328125 23.390625 
Q 57.328125 12.15625 50.6875 5.359375 
Q 44.046875 -1.421875 33.015625 -1.421875 
Q 20.359375 -1.421875 13.671875 8.265625 
Q 6.984375 17.96875 6.984375 36.375 
Q 6.984375 53.65625 15.1875 63.9375 
Q 23.390625 74.21875 37.203125 74.21875 
Q 40.921875 74.21875 44.703125 73.484375 
Q 48.484375 72.75 52.59375 71.296875 
z
" id="DejaVuSans-54"/>
      </defs>
      <g style="fill:#ffffff;" transform="translate(29.4 97.112693)scale(0.1 -0.1)">
       <use transform="translate(0 0.765625)" xlink:href="#DejaVuSans-49"/>
       <use transform="translate(63.623047 0.765625)" xlink:href="#DejaVuSans-48"/>
       <use transform="translate(128.203125 39.046875)scale(0.7)" xlink:href="#DejaVuSans-54"/>
      </g>
     </g>
    </g>
    <g id="ytick_5">
     <g id="line2d_27">
      <path clip-path="url(#p4b9f1ed472)" d="M 54 52.065178 
L 388.8 52.065178 
" style="fill:none;stroke:#ffffff;stroke-linecap:square;stroke-width:0.8;"/>
     </g>
     <g id="line2d_28">
      <g>
       <use style="fill:#ffffff;stroke:#ffffff;stroke-width:0.8;" x="54" xlink:href="#m5c2c5f46e0" y="52.065178"/>
      </g>
     </g>
     <g id="text_15">
      <!-- $\mathdefault{10^{8}}$ -->
      <defs>
       <path d="M 31.78125 34.625 
Q 24.75 34.625 20.71875 30.859375 
Q 16.703125 27.09375 16.703125 20.515625 
Q 16.703125 13.921875 20.71875 10.15625 
Q 24.75 6.390625 31.78125 6.390625 
Q 38.8125 6.390625 42.859375 10.171875 
Q 46.921875 13.96875 46.921875 20.515625 
Q 46.921875 27.09375 42.890625 30.859375 
Q 38.875 34.625 31.78125 34.625 
z
M 21.921875 38.8125 
Q 15.578125 40.375 12.03125 44.71875 
Q 8.5 49.078125 8.5 55.328125 
Q 8.5 64.0625 14.71875 69.140625 
Q 20.953125 74.21875 31.78125 74.21875 
Q 42.671875 74.21875 48.875 69.140625 
Q 55.078125 64.0625 55.078125 55.328125 
Q 55.078125 49.078125 51.53125 44.71875 
Q 48 40.375 41.703125 38.8125 
Q 48.828125 37.15625 52.796875 32.3125 
Q 56.78125 27.484375 56.78125 20.515625 
Q 56.78125 9.90625 50.3125 4.234375 
Q 43.84375 -1.421875 31.78125 -1.421875 
Q 19.734375 -1.421875 13.25 4.234375 
Q 6.78125 9.90625 6.78125 20.515625 
Q 6.78125 27.484375 10.78125 32.3125 
Q 14.796875 37.15625 21.921875 38.8125 
z
M 18.3125 54.390625 
Q 18.3125 48.734375 21.84375 45.5625 
Q 25.390625 42.390625 31.78125 42.390625 
Q 38.140625 42.390625 41.71875 45.5625 
Q 45.3125 48.734375 45.3125 54.390625 
Q 45.3125 60.0625 41.71875 63.234375 
Q 38.140625 66.40625 31.78125 66.40625 
Q 25.390625 66.40625 21.84375 63.234375 
Q 18.3125 60.0625 18.3125 54.390625 
z
" id="DejaVuSans-56"/>
      </defs>
      <g style="fill:#ffffff;" transform="translate(29.4 55.864396)scale(0.1 -0.1)">
       <use transform="translate(0 0.765625)" xlink:href="#DejaVuSans-49"/>
       <use transform="translate(63.623047 0.765625)" xlink:href="#DejaVuSans-48"/>
       <use transform="translate(128.203125 39.046875)scale(0.7)" xlink:href="#DejaVuSans-56"/>
      </g>
     </g>
    </g>
    <g id="text_16">
     <!-- Bankroll -->
     <defs>
      <path d="M 19.671875 34.8125 
L 19.671875 8.109375 
L 35.5 8.109375 
Q 43.453125 8.109375 47.28125 11.40625 
Q 51.125 14.703125 51.125 21.484375 
Q 51.125 28.328125 47.28125 31.5625 
Q 43.453125 34.8125 35.5 34.8125 
z
M 19.671875 64.796875 
L 19.671875 42.828125 
L 34.28125 42.828125 
Q 41.5 42.828125 45.03125 45.53125 
Q 48.578125 48.25 48.578125 53.8125 
Q 48.578125 59.328125 45.03125 62.0625 
Q 41.5 64.796875 34.28125 64.796875 
z
M 9.8125 72.90625 
L 35.015625 72.90625 
Q 46.296875 72.90625 52.390625 68.21875 
Q 58.5 63.53125 58.5 54.890625 
Q 58.5 48.1875 55.375 44.234375 
Q 52.25 40.28125 46.1875 39.3125 
Q 53.46875 37.75 57.5 32.78125 
Q 61.53125 27.828125 61.53125 20.40625 
Q 61.53125 10.640625 54.890625 5.3125 
Q 48.25 0 35.984375 0 
L 9.8125 0 
z
" id="DejaVuSans-66"/>
      <path d="M 34.28125 27.484375 
Q 23.390625 27.484375 19.1875 25 
Q 14.984375 22.515625 14.984375 16.5 
Q 14.984375 11.71875 18.140625 8.90625 
Q 21.296875 6.109375 26.703125 6.109375 
Q 34.1875 6.109375 38.703125 11.40625 
Q 43.21875 16.703125 43.21875 25.484375 
L 43.21875 27.484375 
z
M 52.203125 31.203125 
L 52.203125 0 
L 43.21875 0 
L 43.21875 8.296875 
Q 40.140625 3.328125 35.546875 0.953125 
Q 30.953125 -1.421875 24.3125 -1.421875 
Q 15.921875 -1.421875 10.953125 3.296875 
Q 6 8.015625 6 15.921875 
Q 6 25.140625 12.171875 29.828125 
Q 18.359375 34.515625 30.609375 34.515625 
L 43.21875 34.515625 
L 43.21875 35.40625 
Q 43.21875 41.609375 39.140625 45 
Q 35.0625 48.390625 27.6875 48.390625 
Q 23 48.390625 18.546875 47.265625 
Q 14.109375 46.140625 10.015625 43.890625 
L 10.015625 52.203125 
Q 14.9375 54.109375 19.578125 55.046875 
Q 24.21875 56 28.609375 56 
Q 40.484375 56 46.34375 49.84375 
Q 52.203125 43.703125 52.203125 31.203125 
z
" id="DejaVuSans-97"/>
      <path d="M 54.890625 33.015625 
L 54.890625 0 
L 45.90625 0 
L 45.90625 32.71875 
Q 45.90625 40.484375 42.875 44.328125 
Q 39.84375 48.1875 33.796875 48.1875 
Q 26.515625 48.1875 22.3125 43.546875 
Q 18.109375 38.921875 18.109375 30.90625 
L 18.109375 0 
L 9.078125 0 
L 9.078125 54.6875 
L 18.109375 54.6875 
L 18.109375 46.1875 
Q 21.34375 51.125 25.703125 53.5625 
Q 30.078125 56 35.796875 56 
Q 45.21875 56 50.046875 50.171875 
Q 54.890625 44.34375 54.890625 33.015625 
z
" id="DejaVuSans-110"/>
      <path d="M 9.078125 75.984375 
L 18.109375 75.984375 
L 18.109375 31.109375 
L 44.921875 54.6875 
L 56.390625 54.6875 
L 27.390625 29.109375 
L 57.625 0 
L 45.90625 0 
L 18.109375 26.703125 
L 18.109375 0 
L 9.078125 0 
z
" id="DejaVuSans-107"/>
      <path d="M 41.109375 46.296875 
Q 39.59375 47.171875 37.8125 47.578125 
Q 36.03125 48 33.890625 48 
Q 26.265625 48 22.1875 43.046875 
Q 18.109375 38.09375 18.109375 28.8125 
L 18.109375 0 
L 9.078125 0 
L 9.078125 54.6875 
L 18.109375 54.6875 
L 18.109375 46.1875 
Q 20.953125 51.171875 25.484375 53.578125 
Q 30.03125 56 36.53125 56 
Q 37.453125 56 38.578125 55.875 
Q 39.703125 55.765625 41.0625 55.515625 
z
" id="DejaVuSans-114"/>
      <path d="M 30.609375 48.390625 
Q 23.390625 48.390625 19.1875 42.75 
Q 14.984375 37.109375 14.984375 27.296875 
Q 14.984375 17.484375 19.15625 11.84375 
Q 23.34375 6.203125 30.609375 6.203125 
Q 37.796875 6.203125 41.984375 11.859375 
Q 46.1875 17.53125 46.1875 27.296875 
Q 46.1875 37.015625 41.984375 42.703125 
Q 37.796875 48.390625 30.609375 48.390625 
z
M 30.609375 56 
Q 42.328125 56 49.015625 48.375 
Q 55.71875 40.765625 55.71875 27.296875 
Q 55.71875 13.875 49.015625 6.21875 
Q 42.328125 -1.421875 30.609375 -1.421875 
Q 18.84375 -1.421875 12.171875 6.21875 
Q 5.515625 13.875 5.515625 27.296875 
Q 5.515625 40.765625 12.171875 48.375 
Q 18.84375 56 30.609375 56 
z
" id="DejaVuSans-111"/>
      <path d="M 9.421875 75.984375 
L 18.40625 75.984375 
L 18.40625 0 
L 9.421875 0 
z
" id="DejaVuSans-108"/>
     </defs>
     <g style="fill:#ffffff;" transform="translate(23.320312 163.619062)rotate(-90)scale(0.1 -0.1)">
      <use xlink:href="#DejaVuSans-66"/>
      <use x="68.603516" xlink:href="#DejaVuSans-97"/>
      <use x="129.882812" xlink:href="#DejaVuSans-110"/>
      <use x="193.261719" xlink:href="#DejaVuSans-107"/>
      <use x="251.171875" xlink:href="#DejaVuSans-114"/>
      <use x="290.035156" xlink:href="#DejaVuSans-111"/>
      <use x="351.216797" xlink:href="#DejaVuSans-108"/>
      <use x="379" xlink:href="#DejaVuSans-108"/>
     </g>
    </g>
   </g>
   <g id="line2d_29">
    <path clip-path="url(#p4b9f1ed472)" d="M 69.218182 217.058366 
L 70.74 213.426633 
L 75.305455 221.156899 
L 78.349091 213.893434 
L 84.436364 224.200454 
L 87.48 216.93699 
L 89.001818 219.513745 
L 90.523636 215.882012 
L 92.045455 218.458768 
L 95.089091 211.195303 
L 99.654545 218.925568 
L 102.698182 211.662104 
L 104.22 214.238859 
L 110.307273 199.71193 
L 113.350909 204.86544 
L 116.394545 197.601975 
L 119.438182 202.755485 
L 122.481818 195.492021 
L 124.003636 198.068776 
L 128.569091 187.173579 
L 133.134545 194.903844 
L 134.656364 191.272112 
L 136.178182 193.848867 
L 137.7 190.217135 
L 139.221818 192.79389 
L 148.352727 171.003496 
L 151.396364 176.157006 
L 154.44 168.893542 
L 155.961818 171.470297 
L 157.483636 167.838564 
L 163.570909 178.145585 
L 166.614545 170.88212 
L 168.136364 173.458875 
L 174.223636 158.931946 
L 177.267273 164.085456 
L 178.789091 160.453724 
L 181.832727 165.607234 
L 183.354545 161.975502 
L 187.92 169.705767 
L 190.963636 162.442302 
L 194.007273 167.595812 
L 195.529091 163.96408 
L 200.094545 171.694345 
L 201.616364 168.062613 
L 204.66 173.216123 
L 206.181818 169.584391 
L 209.225455 174.737901 
L 210.747273 171.106169 
L 221.4 189.143454 
L 222.921818 185.511722 
L 227.487273 193.241987 
L 230.530909 185.978522 
L 232.052727 188.555277 
L 235.096364 181.291813 
L 239.661818 189.022078 
L 241.183636 185.390346 
L 242.705455 187.967101 
L 244.227273 184.335369 
L 245.749091 186.912124 
L 247.270909 183.280391 
L 253.358182 193.587412 
L 256.401818 186.323947 
L 262.489091 196.630967 
L 264.010909 192.999235 
L 267.054545 198.152745 
L 268.576364 194.521013 
L 273.141818 202.251278 
L 274.663636 198.619546 
L 276.185455 201.196301 
L 277.707273 197.564568 
L 279.229091 200.141324 
L 282.272727 192.877859 
L 283.794545 195.454614 
L 285.316364 191.822882 
L 289.881818 199.553147 
L 291.403636 195.921415 
L 294.447273 201.074925 
L 295.969091 197.443193 
L 306.621818 215.480478 
L 308.143636 211.848746 
L 312.709091 219.579011 
L 320.318182 201.420349 
L 321.84 203.997104 
L 324.883636 196.73364 
L 326.405455 199.310395 
L 330.970909 188.415198 
L 332.492727 190.991953 
L 335.536364 183.728489 
L 337.058182 186.305244 
L 338.58 182.673511 
L 341.623636 187.827022 
L 344.667273 180.563557 
L 346.189091 183.140312 
L 347.710909 179.50858 
L 349.232727 182.085335 
L 350.754545 178.453603 
L 353.798182 183.607113 
L 356.841818 176.343648 
L 364.450909 189.227423 
L 365.972727 185.595691 
L 367.494545 188.172446 
L 370.538182 180.908982 
L 373.581818 186.062492 
L 373.581818 186.062492 
" style="fill:none;stroke:#8dd3c7;stroke-linecap:square;stroke-width:1.5;"/>
   </g>
   <g id="line2d_30">
    <path clip-path="url(#p4b9f1ed472)" d="M 69.218182 217.058366 
L 73.783636 224.788631 
L 76.827273 217.525166 
L 78.349091 220.101921 
L 82.914545 209.206725 
L 89.001818 219.513745 
L 92.045455 212.25028 
L 95.089091 217.40379 
L 101.176364 202.876861 
L 105.741818 210.607126 
L 107.263636 206.975394 
L 108.785455 209.552149 
L 113.350909 198.656952 
L 122.481818 214.117483 
L 125.525455 206.854018 
L 130.090909 214.584283 
L 131.612727 210.952551 
L 134.656364 216.106061 
L 136.178182 212.474329 
L 140.743636 220.204594 
L 142.265455 216.572862 
L 143.787273 219.149617 
L 146.830909 211.886152 
L 148.352727 214.462907 
L 151.396364 207.199443 
L 169.658182 238.120503 
L 174.223636 227.225307 
L 175.745455 229.802062 
L 177.267273 226.170329 
L 180.310909 231.323839 
L 187.92 213.165178 
L 190.963636 218.318688 
L 194.007273 211.055224 
L 195.529091 213.631979 
L 197.050909 210.000246 
L 200.094545 215.153757 
L 204.66 204.25856 
L 206.181818 206.835315 
L 207.703636 203.203583 
L 209.225455 205.780338 
L 210.747273 202.148605 
L 213.790909 207.302115 
L 218.356364 196.406919 
L 221.4 201.560429 
L 225.965455 190.665232 
L 227.487273 193.241987 
L 229.009091 189.610255 
L 232.052727 194.763765 
L 235.096364 187.5003 
L 236.618182 190.077055 
L 239.661818 182.813591 
L 247.270909 195.697366 
L 248.792727 192.065634 
L 253.358182 199.795899 
L 254.88 196.164167 
L 257.923636 201.317677 
L 259.445455 197.685944 
L 262.489091 202.839455 
L 265.532727 195.57599 
L 270.098182 203.306255 
L 274.663636 192.411058 
L 277.707273 197.564568 
L 282.272727 186.669372 
L 283.794545 189.246127 
L 285.316364 185.614394 
L 294.447273 201.074925 
L 302.056364 182.916263 
L 305.1 188.069774 
L 308.143636 180.806309 
L 311.187273 185.959819 
L 312.709091 182.328087 
L 314.230909 184.904842 
L 317.274545 177.641377 
L 320.318182 182.794887 
L 324.883636 171.899691 
L 326.405455 174.476446 
L 329.449091 167.212981 
L 330.970909 169.789736 
L 332.492727 166.158004 
L 334.014545 168.734759 
L 337.058182 161.471294 
L 340.101818 166.624805 
L 341.623636 162.993072 
L 344.667273 168.146582 
L 347.710909 160.883118 
L 352.276364 168.613383 
L 353.798182 164.981651 
L 355.32 167.558406 
L 356.841818 163.926673 
L 358.363636 166.503429 
L 364.450909 151.976499 
L 370.538182 162.28352 
L 373.581818 155.020055 
L 373.581818 155.020055 
" style="fill:none;stroke:#feffb3;stroke-linecap:square;stroke-width:1.5;"/>
   </g>
   <g id="line2d_31">
    <path clip-path="url(#p4b9f1ed472)" d="M 69.218182 217.058366 
L 70.74 213.426633 
L 72.261818 216.003388 
L 75.305455 208.739924 
L 76.827273 211.316679 
L 78.349091 207.684947 
L 82.914545 215.415212 
L 87.48 204.520015 
L 98.132727 222.5573 
L 105.741818 204.398639 
L 107.263636 206.975394 
L 108.785455 203.343662 
L 111.829091 208.497172 
L 113.350909 204.86544 
L 114.872727 207.442195 
L 116.394545 203.810462 
L 119.438182 208.963973 
L 120.96 205.33224 
L 125.525455 213.062505 
L 127.047273 209.430773 
L 128.569091 212.007528 
L 130.090909 208.375796 
L 133.134545 213.529306 
L 139.221818 199.002377 
L 142.265455 204.155887 
L 145.309091 196.892423 
L 146.830909 199.469178 
L 149.874545 192.205713 
L 155.961818 202.512733 
L 157.483636 198.881001 
L 159.005455 201.457756 
L 160.527273 197.826024 
L 165.092727 205.556289 
L 166.614545 201.924557 
L 168.136364 204.501312 
L 169.658182 200.869579 
L 174.223636 208.599845 
L 175.745455 204.968112 
L 177.267273 207.544867 
L 178.789091 203.913135 
L 183.354545 211.6434 
L 186.398182 204.379936 
L 187.92 206.956691 
L 192.485455 196.061494 
L 195.529091 201.215004 
L 197.050909 197.583272 
L 200.094545 202.736782 
L 201.616364 199.10505 
L 203.138182 201.681805 
L 207.703636 190.786608 
L 213.790909 201.093628 
L 215.312727 197.461896 
L 218.356364 202.615406 
L 219.878182 198.983674 
L 224.443636 206.713939 
L 225.965455 203.082207 
L 230.530909 210.812472 
L 238.14 192.65381 
L 239.661818 195.230565 
L 241.183636 191.598833 
L 242.705455 194.175588 
L 248.792727 179.648659 
L 253.358182 187.378924 
L 256.401818 180.11546 
L 257.923636 182.692215 
L 259.445455 179.060482 
L 260.967273 181.637238 
L 265.532727 170.742041 
L 267.054545 173.318796 
L 268.576364 169.687063 
L 271.62 174.840574 
L 273.141818 171.208841 
L 277.707273 178.939107 
L 279.229091 175.307374 
L 280.750909 177.884129 
L 283.794545 170.620665 
L 285.316364 173.19742 
L 286.838182 169.565688 
L 288.36 172.142443 
L 289.881818 168.51071 
L 291.403636 171.087465 
L 292.925455 167.455733 
L 294.447273 170.032488 
L 297.490909 162.769024 
L 300.534545 167.922534 
L 302.056364 164.290801 
L 305.1 169.444312 
L 308.143636 162.180847 
L 312.709091 169.911112 
L 317.274545 159.015915 
L 318.796364 161.59267 
L 326.405455 143.434009 
L 327.927273 146.010764 
L 329.449091 142.379032 
L 334.014545 150.109297 
L 335.536364 146.477565 
L 337.058182 149.05432 
L 338.58 145.422587 
L 340.101818 147.999343 
L 347.710909 129.840681 
L 349.232727 132.417436 
L 352.276364 125.153972 
L 355.32 130.307482 
L 364.450909 108.517088 
L 365.972727 111.093843 
L 367.494545 107.462111 
L 373.581818 117.769131 
L 373.581818 117.769131 
" style="fill:none;stroke:#bfbbd9;stroke-linecap:square;stroke-width:1.5;"/>
   </g>
   <g id="line2d_32">
    <path clip-path="url(#p4b9f1ed472)" d="M 69.218182 217.058366 
L 70.74 219.635121 
L 72.261818 216.003388 
L 76.827273 223.733654 
L 78.349091 220.101921 
L 81.392727 225.255431 
L 84.436364 217.991967 
L 90.523636 228.298987 
L 92.045455 224.667255 
L 95.089091 229.820765 
L 102.698182 211.662104 
L 104.22 214.238859 
L 105.741818 210.607126 
L 113.350909 223.490902 
L 114.872727 219.859169 
L 116.394545 222.435924 
L 124.003636 204.277263 
L 125.525455 206.854018 
L 131.612727 192.327089 
L 133.134545 194.903844 
L 136.178182 187.64038 
L 137.7 190.217135 
L 140.743636 182.95367 
L 143.787273 188.10718 
L 149.874545 173.580251 
L 151.396364 176.157006 
L 152.918182 172.525274 
L 163.570909 190.562559 
L 168.136364 179.667362 
L 169.658182 182.244117 
L 172.701818 174.980653 
L 174.223636 177.557408 
L 175.745455 173.925676 
L 177.267273 176.502431 
L 178.789091 172.870698 
L 183.354545 180.600964 
L 190.963636 162.442302 
L 194.007273 167.595812 
L 197.050909 160.332348 
L 201.616364 168.062613 
L 204.66 160.799148 
L 206.181818 163.375903 
L 213.790909 145.217242 
L 215.312727 147.793997 
L 216.834545 144.162265 
L 218.356364 146.73902 
L 219.878182 143.107288 
L 221.4 145.684043 
L 222.921818 142.05231 
L 229.009091 152.359331 
L 230.530909 148.727598 
L 232.052727 151.304353 
L 244.227273 122.250495 
L 245.749091 124.82725 
L 247.270909 121.195518 
L 248.792727 123.772273 
L 250.314545 120.140541 
L 251.836364 122.717296 
L 256.401818 111.822099 
L 257.923636 114.398854 
L 260.967273 107.13539 
L 265.532727 114.865655 
L 268.576364 107.60219 
L 274.663636 117.90921 
L 279.229091 107.014014 
L 288.36 122.474544 
L 289.881818 118.842812 
L 294.447273 126.573077 
L 297.490909 119.309612 
L 305.1 132.193388 
L 306.621818 128.561655 
L 309.665455 133.715165 
L 311.187273 130.083433 
L 312.709091 132.660188 
L 317.274545 121.764991 
L 320.318182 126.918501 
L 323.361818 119.655037 
L 326.405455 124.808547 
L 327.927273 121.176815 
L 329.449091 123.75357 
L 330.970909 120.121838 
L 335.536364 127.852103 
L 338.58 120.588638 
L 346.189091 133.472413 
L 347.710909 129.840681 
L 350.754545 134.994191 
L 358.363636 116.83553 
L 369.016364 134.872815 
L 370.538182 131.241083 
L 373.581818 136.394593 
L 373.581818 136.394593 
" style="fill:none;stroke:#fa8174;stroke-linecap:square;stroke-width:1.5;"/>
   </g>
   <g id="line2d_33">
    <path clip-path="url(#p4b9f1ed472)" d="M 69.218182 217.058366 
L 73.783636 206.163169 
L 75.305455 208.739924 
L 76.827273 205.108192 
L 84.436364 217.991967 
L 85.958182 214.360235 
L 89.001818 219.513745 
L 93.567273 208.618548 
L 99.654545 218.925568 
L 101.176364 215.293836 
L 102.698182 217.870591 
L 107.263636 206.975394 
L 108.785455 209.552149 
L 111.829091 202.288685 
L 114.872727 207.442195 
L 117.916364 200.17873 
L 119.438182 202.755485 
L 122.481818 195.492021 
L 124.003636 198.068776 
L 127.047273 190.805311 
L 133.134545 201.112331 
L 134.656364 197.480599 
L 136.178182 200.057354 
L 137.7 196.425622 
L 139.221818 199.002377 
L 143.787273 188.10718 
L 151.396364 200.990955 
L 154.44 193.727491 
L 155.961818 196.304246 
L 157.483636 192.672514 
L 159.005455 195.249269 
L 160.527273 191.617536 
L 163.570909 196.771047 
L 165.092727 193.139314 
L 166.614545 195.716069 
L 168.136364 192.084337 
L 169.658182 194.661092 
L 171.18 191.02936 
L 172.701818 193.606115 
L 175.745455 186.34265 
L 177.267273 188.919405 
L 180.310909 181.655941 
L 184.876364 189.386206 
L 186.398182 185.754474 
L 189.441818 190.907984 
L 195.529091 176.381055 
L 197.050909 178.95781 
L 200.094545 171.694345 
L 204.66 179.42461 
L 207.703636 172.161146 
L 209.225455 174.737901 
L 210.747273 171.106169 
L 216.834545 181.413189 
L 218.356364 177.781457 
L 224.443636 188.088477 
L 225.965455 184.456745 
L 227.487273 187.0335 
L 233.574545 172.506571 
L 238.14 180.236836 
L 239.661818 176.605103 
L 241.183636 179.181858 
L 244.227273 171.918394 
L 245.749091 174.495149 
L 247.270909 170.863417 
L 250.314545 176.016927 
L 251.836364 172.385195 
L 254.88 177.538705 
L 260.967273 163.011776 
L 264.010909 168.165286 
L 265.532727 164.533553 
L 271.62 174.840574 
L 273.141818 171.208841 
L 274.663636 173.785596 
L 276.185455 170.153864 
L 277.707273 172.730619 
L 279.229091 169.098887 
L 280.750909 171.675642 
L 283.794545 164.412177 
L 285.316364 166.988932 
L 289.881818 156.093736 
L 291.403636 158.670491 
L 294.447273 151.407026 
L 299.012727 159.137291 
L 300.534545 155.505559 
L 302.056364 158.082314 
L 308.143636 143.555385 
L 309.665455 146.13214 
L 314.230909 135.236943 
L 315.752727 137.813698 
L 317.274545 134.181966 
L 318.796364 136.758721 
L 320.318182 133.126989 
L 321.84 135.703744 
L 324.883636 128.440279 
L 326.405455 131.017034 
L 329.449091 123.75357 
L 330.970909 126.330325 
L 332.492727 122.698593 
L 335.536364 127.852103 
L 338.58 120.588638 
L 343.145455 128.318903 
L 349.232727 113.791974 
L 352.276364 118.945484 
L 353.798182 115.313752 
L 359.885455 125.620772 
L 365.972727 111.093843 
L 372.06 121.400863 
L 373.581818 117.769131 
L 373.581818 117.769131 
" style="fill:none;stroke:#81b1d2;stroke-linecap:square;stroke-width:1.5;"/>
   </g>
   <g id="line2d_34">
    <path clip-path="url(#p4b9f1ed472)" d="M 69.218182 217.058366 
L 70.74 213.426633 
L 72.261818 216.003388 
L 73.783636 212.371656 
L 75.305455 214.948411 
L 76.827273 211.316679 
L 81.392727 219.046944 
L 82.914545 215.415212 
L 87.48 223.145477 
L 92.045455 212.25028 
L 95.089091 217.40379 
L 104.22 195.613397 
L 108.785455 203.343662 
L 110.307273 199.71193 
L 111.829091 202.288685 
L 113.350909 198.656952 
L 116.394545 203.810462 
L 117.916364 200.17873 
L 119.438182 202.755485 
L 120.96 199.123753 
L 122.481818 201.700508 
L 131.612727 179.910114 
L 133.134545 182.486869 
L 136.178182 175.223405 
L 139.221818 180.376915 
L 140.743636 176.745183 
L 143.787273 181.898693 
L 146.830909 174.635228 
L 148.352727 177.211983 
L 152.918182 166.316786 
L 168.136364 192.084337 
L 171.18 184.820873 
L 172.701818 187.397628 
L 174.223636 183.765895 
L 177.267273 188.919405 
L 178.789091 185.287673 
L 180.310909 187.864428 
L 189.441818 166.074035 
L 194.007273 173.8043 
L 195.529091 170.172567 
L 197.050909 172.749322 
L 200.094545 165.485858 
L 201.616364 168.062613 
L 204.66 160.799148 
L 206.181818 163.375903 
L 207.703636 159.744171 
L 212.269091 167.474436 
L 213.790909 163.842704 
L 216.834545 168.996214 
L 219.878182 161.73275 
L 221.4 164.309505 
L 222.921818 160.677772 
L 224.443636 163.254528 
L 225.965455 159.622795 
L 227.487273 162.19955 
L 236.618182 140.409157 
L 239.661818 145.562667 
L 241.183636 141.930934 
L 245.749091 149.6612 
L 247.270909 146.029467 
L 248.792727 148.606222 
L 250.314545 144.97449 
L 253.358182 150.128 
L 257.923636 139.232803 
L 260.967273 144.386314 
L 262.489091 140.754581 
L 265.532727 145.908091 
L 267.054545 142.276359 
L 270.098182 147.429869 
L 271.62 143.798137 
L 273.141818 146.374892 
L 276.185455 139.111427 
L 277.707273 141.688183 
L 280.750909 134.424718 
L 283.794545 139.578228 
L 286.838182 132.314764 
L 288.36 134.891519 
L 289.881818 131.259786 
L 299.012727 146.720317 
L 300.534545 143.088584 
L 308.143636 155.97236 
L 309.665455 152.340627 
L 311.187273 154.917382 
L 314.230909 147.653918 
L 315.752727 150.230673 
L 318.796364 142.967208 
L 320.318182 145.543963 
L 323.361818 138.280499 
L 324.883636 140.857254 
L 326.405455 137.225522 
L 327.927273 139.802277 
L 329.449091 136.170544 
L 340.101818 154.20783 
L 343.145455 146.944365 
L 344.667273 149.52112 
L 346.189091 145.889388 
L 347.710909 148.466143 
L 349.232727 144.834411 
L 350.754545 147.411166 
L 352.276364 143.779434 
L 356.841818 151.509699 
L 361.407273 140.614502 
L 362.929091 143.191257 
L 369.016364 128.664328 
L 373.581818 136.394593 
L 373.581818 136.394593 
" style="fill:none;stroke:#fdb462;stroke-linecap:square;stroke-width:1.5;"/>
   </g>
   <g id="line2d_35">
    <path clip-path="url(#p4b9f1ed472)" d="M 69.218182 217.058366 
L 72.261818 222.211876 
L 73.783636 218.580143 
L 75.305455 221.156899 
L 82.914545 202.998237 
L 85.958182 208.151747 
L 87.48 204.520015 
L 89.001818 207.09677 
L 90.523636 203.465038 
L 93.567273 208.618548 
L 96.610909 201.355083 
L 99.654545 206.508593 
L 110.307273 181.086468 
L 113.350909 186.239978 
L 116.394545 178.976513 
L 117.916364 181.553268 
L 119.438182 177.921536 
L 128.569091 193.382066 
L 133.134545 182.486869 
L 136.178182 187.64038 
L 137.7 184.008647 
L 142.265455 191.738912 
L 143.787273 188.10718 
L 152.918182 203.56771 
L 159.005455 189.040781 
L 160.527273 191.617536 
L 162.049091 187.985804 
L 165.092727 193.139314 
L 166.614545 189.507582 
L 171.18 197.237847 
L 175.745455 186.34265 
L 180.310909 194.072916 
L 181.832727 190.441183 
L 183.354545 193.017938 
L 184.876364 189.386206 
L 189.441818 197.116471 
L 192.485455 189.853007 
L 195.529091 195.006517 
L 200.094545 184.11132 
L 201.616364 186.688075 
L 203.138182 183.056343 
L 204.66 185.633098 
L 210.747273 171.106169 
L 213.790909 176.259679 
L 216.834545 168.996214 
L 218.356364 171.572969 
L 221.4 164.309505 
L 222.921818 166.88626 
L 225.965455 159.622795 
L 227.487273 162.19955 
L 229.009091 158.567818 
L 230.530909 161.144573 
L 235.096364 150.249376 
L 239.661818 157.979641 
L 242.705455 150.716177 
L 245.749091 155.869687 
L 247.270909 152.237955 
L 248.792727 154.81471 
L 250.314545 151.182977 
L 253.358182 156.336488 
L 257.923636 145.441291 
L 262.489091 153.171556 
L 264.010909 149.539824 
L 265.532727 152.116579 
L 268.576364 144.853114 
L 274.663636 155.160134 
L 276.185455 151.528402 
L 279.229091 156.681912 
L 285.316364 142.154983 
L 286.838182 144.731738 
L 289.881818 137.468274 
L 292.925455 142.621784 
L 294.447273 138.990051 
L 300.534545 149.297072 
L 302.056364 145.665339 
L 303.578182 148.242094 
L 305.1 144.610362 
L 306.621818 147.187117 
L 308.143636 143.555385 
L 311.187273 148.708895 
L 312.709091 145.077163 
L 317.274545 152.807428 
L 318.796364 149.175696 
L 320.318182 151.752451 
L 321.84 148.120719 
L 323.361818 150.697474 
L 330.970909 132.538812 
L 332.492727 135.115567 
L 337.058182 124.22037 
L 340.101818 129.373881 
L 341.623636 125.742148 
L 343.145455 128.318903 
L 349.232727 113.791974 
L 350.754545 116.368729 
L 353.798182 109.105265 
L 367.494545 132.29606 
L 369.016364 128.664328 
L 370.538182 131.241083 
L 373.581818 123.977618 
L 373.581818 123.977618 
" style="fill:none;stroke:#b3de69;stroke-linecap:square;stroke-width:1.5;"/>
   </g>
   <g id="line2d_36">
    <path clip-path="url(#p4b9f1ed472)" d="M 69.218182 217.058366 
L 81.392727 237.672406 
L 89.001818 219.513745 
L 92.045455 224.667255 
L 95.089091 217.40379 
L 96.610909 219.980545 
L 98.132727 216.348813 
L 99.654545 218.925568 
L 101.176364 215.293836 
L 102.698182 217.870591 
L 104.22 214.238859 
L 111.829091 227.122634 
L 113.350909 223.490902 
L 114.872727 226.067657 
L 116.394545 222.435924 
L 117.916364 225.012679 
L 119.438182 221.380947 
L 120.96 223.957702 
L 125.525455 213.062505 
L 130.090909 220.792771 
L 131.612727 217.161038 
L 134.656364 222.314548 
L 136.178182 218.682816 
L 143.787273 231.566591 
L 146.830909 224.303127 
L 148.352727 226.879882 
L 154.44 212.352953 
L 155.961818 214.929708 
L 157.483636 211.297976 
L 160.527273 216.451486 
L 162.049091 212.819753 
L 165.092727 217.973264 
L 166.614545 214.341531 
L 168.136364 216.918286 
L 169.658182 213.286554 
L 172.701818 218.440064 
L 174.223636 214.808332 
L 181.832727 227.692107 
L 186.398182 216.79691 
L 189.441818 221.950421 
L 195.529091 207.423491 
L 197.050909 210.000246 
L 198.572727 206.368514 
L 200.094545 208.945269 
L 204.66 198.050072 
L 206.181818 200.626827 
L 213.790909 182.468166 
L 216.834545 187.621676 
L 219.878182 180.358212 
L 221.4 182.934967 
L 225.965455 172.03977 
L 227.487273 174.616525 
L 229.009091 170.984793 
L 233.574545 178.715058 
L 235.096364 175.083326 
L 238.14 180.236836 
L 242.705455 169.341639 
L 244.227273 171.918394 
L 245.749091 168.286662 
L 260.967273 194.054212 
L 264.010909 186.790748 
L 270.098182 197.097768 
L 271.62 193.466036 
L 274.663636 198.619546 
L 277.707273 191.356081 
L 279.229091 193.932836 
L 280.750909 190.301104 
L 283.794545 195.454614 
L 286.838182 188.19115 
L 288.36 190.767905 
L 299.012727 165.345779 
L 300.534545 167.922534 
L 302.056364 164.290801 
L 303.578182 166.867556 
L 306.621818 159.604092 
L 308.143636 162.180847 
L 309.665455 158.549115 
L 314.230909 166.27938 
L 318.796364 155.384183 
L 320.318182 157.960938 
L 323.361818 150.697474 
L 326.405455 155.850984 
L 327.927273 152.219251 
L 329.449091 154.796006 
L 330.970909 151.164274 
L 337.058182 161.471294 
L 338.58 157.839562 
L 340.101818 160.416317 
L 341.623636 156.784585 
L 350.754545 172.245115 
L 352.276364 168.613383 
L 353.798182 171.190138 
L 355.32 167.558406 
L 358.363636 172.711916 
L 359.885455 169.080184 
L 361.407273 171.656939 
L 362.929091 168.025206 
L 365.972727 173.178716 
L 367.494545 169.546984 
L 369.016364 172.123739 
L 372.06 164.860275 
L 373.581818 167.43703 
L 373.581818 167.43703 
" style="fill:none;stroke:#bc82bd;stroke-linecap:square;stroke-width:1.5;"/>
   </g>
   <g id="line2d_37">
    <path clip-path="url(#p4b9f1ed472)" d="M 69.218182 217.058366 
L 73.783636 224.788631 
L 79.870909 210.261702 
L 82.914545 215.415212 
L 85.958182 208.151747 
L 92.045455 218.458768 
L 93.567273 214.827035 
L 95.089091 217.40379 
L 98.132727 210.140326 
L 99.654545 212.717081 
L 107.263636 194.558419 
L 108.785455 197.135174 
L 114.872727 182.608245 
L 116.394545 185.185 
L 117.916364 181.553268 
L 119.438182 184.130023 
L 120.96 180.498291 
L 122.481818 183.075046 
L 124.003636 179.443314 
L 127.047273 184.596824 
L 130.090909 177.333359 
L 139.221818 192.79389 
L 142.265455 185.530425 
L 152.918182 203.56771 
L 154.44 199.935978 
L 155.961818 202.512733 
L 157.483636 198.881001 
L 160.527273 204.034511 
L 163.570909 196.771047 
L 169.658182 207.078067 
L 174.223636 196.18287 
L 175.745455 198.759625 
L 177.267273 195.127893 
L 180.310909 200.281403 
L 181.832727 196.649671 
L 184.876364 201.803181 
L 186.398182 198.171448 
L 189.441818 203.324959 
L 190.963636 199.693226 
L 194.007273 204.846736 
L 198.572727 193.95154 
L 200.094545 196.528295 
L 203.138182 189.26483 
L 204.66 191.841585 
L 206.181818 188.209853 
L 210.747273 195.940118 
L 212.269091 192.308386 
L 215.312727 197.461896 
L 216.834545 193.830164 
L 219.878182 198.983674 
L 221.4 195.351941 
L 224.443636 200.505451 
L 229.009091 189.610255 
L 232.052727 194.763765 
L 236.618182 183.868568 
L 247.270909 201.905853 
L 248.792727 198.274121 
L 254.88 208.581141 
L 257.923636 201.317677 
L 262.489091 209.047942 
L 267.054545 198.152745 
L 268.576364 200.7295 
L 270.098182 197.097768 
L 271.62 199.674523 
L 273.141818 196.042791 
L 274.663636 198.619546 
L 276.185455 194.987813 
L 277.707273 197.564568 
L 279.229091 193.932836 
L 280.750909 196.509591 
L 283.794545 189.246127 
L 291.403636 202.129902 
L 294.447273 194.866437 
L 299.012727 202.596703 
L 308.143636 180.806309 
L 309.665455 183.383064 
L 311.187273 179.751332 
L 312.709091 182.328087 
L 315.752727 175.064622 
L 318.796364 180.218132 
L 320.318182 176.5864 
L 321.84 179.163155 
L 324.883636 171.899691 
L 327.927273 177.053201 
L 329.449091 173.421468 
L 330.970909 175.998224 
L 332.492727 172.366491 
L 335.536364 177.520001 
L 340.101818 166.624805 
L 343.145455 171.778315 
L 344.667273 168.146582 
L 346.189091 170.723337 
L 350.754545 159.828141 
L 355.32 167.558406 
L 356.841818 163.926673 
L 358.363636 166.503429 
L 359.885455 162.871696 
L 361.407273 165.448451 
L 367.494545 150.921522 
L 369.016364 153.498277 
L 372.06 146.234813 
L 373.581818 148.811568 
L 373.581818 148.811568 
" style="fill:none;stroke:#ccebc4;stroke-linecap:square;stroke-width:1.5;"/>
   </g>
   <g id="line2d_38">
    <path clip-path="url(#p4b9f1ed472)" d="M 69.218182 217.058366 
L 70.74 219.635121 
L 72.261818 216.003388 
L 73.783636 218.580143 
L 78.349091 207.684947 
L 82.914545 215.415212 
L 84.436364 211.78348 
L 85.958182 214.360235 
L 87.48 210.728502 
L 89.001818 213.305257 
L 93.567273 202.410061 
L 95.089091 204.986816 
L 98.132727 197.723351 
L 99.654545 200.300106 
L 102.698182 193.036642 
L 107.263636 200.766907 
L 108.785455 197.135174 
L 110.307273 199.71193 
L 116.394545 185.185 
L 119.438182 190.338511 
L 122.481818 183.075046 
L 124.003636 185.651801 
L 125.525455 182.020069 
L 127.047273 184.596824 
L 130.090909 177.333359 
L 133.134545 182.486869 
L 134.656364 178.855137 
L 137.7 184.008647 
L 139.221818 180.376915 
L 140.743636 182.95367 
L 143.787273 175.690205 
L 148.352727 183.420471 
L 152.918182 172.525274 
L 154.44 175.102029 
L 157.483636 167.838564 
L 162.049091 175.568829 
L 166.614545 164.673633 
L 168.136364 167.250388 
L 175.745455 149.091726 
L 177.267273 151.668481 
L 178.789091 148.036749 
L 180.310909 150.613504 
L 181.832727 146.981772 
L 184.876364 152.135282 
L 186.398182 148.50355 
L 189.441818 153.65706 
L 190.963636 150.025328 
L 194.007273 155.178838 
L 195.529091 151.547105 
L 197.050909 154.12386 
L 198.572727 150.492128 
L 200.094545 153.068883 
L 203.138182 145.805419 
L 204.66 148.382174 
L 207.703636 141.118709 
L 210.747273 146.272219 
L 212.269091 142.640487 
L 215.312727 147.793997 
L 216.834545 144.162265 
L 221.4 151.89253 
L 230.530909 130.102136 
L 232.052727 132.678891 
L 238.14 118.151962 
L 241.183636 123.305472 
L 244.227273 116.042008 
L 245.749091 118.618763 
L 247.270909 114.987031 
L 248.792727 117.563786 
L 251.836364 110.300321 
L 253.358182 112.877076 
L 256.401818 105.613612 
L 257.923636 108.190367 
L 264.010909 93.663438 
L 267.054545 98.816948 
L 268.576364 95.185216 
L 271.62 100.338726 
L 276.185455 89.443529 
L 279.229091 94.597039 
L 280.750909 90.965307 
L 285.316364 98.695572 
L 295.969091 73.273446 
L 297.490909 75.850201 
L 299.012727 72.218469 
L 306.621818 85.102244 
L 308.143636 81.470512 
L 311.187273 86.624022 
L 312.709091 82.99229 
L 314.230909 85.569045 
L 317.274545 78.30558 
L 318.796364 80.882335 
L 323.361818 69.987138 
L 324.883636 72.563893 
L 327.927273 65.300429 
L 330.970909 70.453939 
L 332.492727 66.822207 
L 334.014545 69.398962 
L 335.536364 65.767229 
L 338.58 70.92074 
L 341.623636 63.657275 
L 343.145455 66.23403 
L 352.276364 44.443636 
L 358.363636 54.750657 
L 361.407273 47.487192 
L 365.972727 55.217457 
L 367.494545 51.585725 
L 372.06 59.31599 
L 373.581818 55.684258 
L 373.581818 55.684258 
" style="fill:none;stroke:#ffed6f;stroke-linecap:square;stroke-width:1.5;"/>
   </g>
   <g id="line2d_39">
    <path clip-path="url(#p4b9f1ed472)" d="M 69.218182 217.058366 
L 72.261818 222.211876 
L 73.783636 218.580143 
L 75.305455 221.156899 
L 78.349091 213.893434 
L 79.870909 216.470189 
L 84.436364 205.574992 
L 85.958182 208.151747 
L 90.523636 197.25655 
L 93.567273 202.410061 
L 95.089091 198.778328 
L 96.610909 201.355083 
L 98.132727 197.723351 
L 104.22 208.030371 
L 105.741818 204.398639 
L 117.916364 225.012679 
L 119.438182 221.380947 
L 122.481818 226.534457 
L 124.003636 222.902725 
L 125.525455 225.47948 
L 128.569091 218.216016 
L 131.612727 223.369526 
L 134.656364 216.106061 
L 139.221818 223.836326 
L 140.743636 220.204594 
L 143.787273 225.358104 
L 145.309091 221.726372 
L 148.352727 226.879882 
L 151.396364 219.616417 
L 152.918182 222.193172 
L 154.44 218.56144 
L 155.961818 221.138195 
L 157.483636 217.506463 
L 159.005455 220.083218 
L 160.527273 216.451486 
L 166.614545 226.758506 
L 168.136364 223.126774 
L 171.18 228.280284 
L 175.745455 217.385087 
L 181.832727 227.692107 
L 184.876364 220.428643 
L 186.398182 223.005398 
L 187.92 219.373665 
L 189.441818 221.950421 
L 194.007273 211.055224 
L 195.529091 213.631979 
L 197.050909 210.000246 
L 198.572727 212.577002 
L 206.181818 194.41834 
L 207.703636 196.995095 
L 209.225455 193.363363 
L 213.790909 201.093628 
L 219.878182 186.566699 
L 221.4 189.143454 
L 229.009091 170.984793 
L 230.530909 173.561548 
L 233.574545 166.298083 
L 235.096364 168.874838 
L 238.14 161.611374 
L 239.661818 164.188129 
L 242.705455 156.924664 
L 247.270909 164.654929 
L 248.792727 161.023197 
L 250.314545 163.599952 
L 254.88 152.704755 
L 256.401818 155.28151 
L 257.923636 151.649778 
L 259.445455 154.226533 
L 262.489091 146.963069 
L 265.532727 152.116579 
L 268.576364 144.853114 
L 271.62 150.006624 
L 274.663636 142.74316 
L 276.185455 145.319915 
L 277.707273 141.688183 
L 280.750909 146.841693 
L 285.316364 135.946496 
L 286.838182 138.523251 
L 288.36 134.891519 
L 289.881818 137.468274 
L 294.447273 126.573077 
L 295.969091 129.149832 
L 299.012727 121.886367 
L 302.056364 127.039877 
L 303.578182 123.408145 
L 305.1 125.9849 
L 309.665455 115.089703 
L 311.187273 117.666458 
L 324.883636 84.980868 
L 326.405455 87.557623 
L 329.449091 80.294158 
L 330.970909 82.870914 
L 341.623636 57.448788 
L 344.667273 62.602298 
L 346.189091 58.970565 
L 349.232727 64.124076 
L 352.276364 56.860611 
L 353.798182 59.437366 
L 355.32 55.805634 
L 358.363636 60.959144 
L 359.885455 57.327412 
L 361.407273 59.904167 
L 365.972727 49.00897 
L 367.494545 51.585725 
L 369.016364 47.953993 
L 373.581818 55.684258 
L 373.581818 55.684258 
" style="fill:none;stroke:#8dd3c7;stroke-linecap:square;stroke-width:1.5;"/>
   </g>
   <g id="line2d_40">
    <path clip-path="url(#p4b9f1ed472)" d="M 69.218182 217.058366 
L 70.74 213.426633 
L 72.261818 216.003388 
L 73.783636 212.371656 
L 79.870909 222.678676 
L 82.914545 215.415212 
L 84.436364 217.991967 
L 85.958182 214.360235 
L 89.001818 219.513745 
L 90.523636 215.882012 
L 92.045455 218.458768 
L 96.610909 207.563571 
L 99.654545 212.717081 
L 101.176364 209.085349 
L 105.741818 216.815614 
L 108.785455 209.552149 
L 110.307273 212.128904 
L 114.872727 201.233707 
L 116.394545 203.810462 
L 120.96 192.915266 
L 124.003636 198.068776 
L 125.525455 194.437043 
L 127.047273 197.013799 
L 130.090909 189.750334 
L 131.612727 192.327089 
L 134.656364 185.063624 
L 136.178182 187.64038 
L 137.7 184.008647 
L 142.265455 191.738912 
L 151.396364 169.948519 
L 155.961818 177.678784 
L 160.527273 166.783587 
L 163.570909 171.937097 
L 165.092727 168.305365 
L 169.658182 176.03563 
L 171.18 172.403898 
L 181.832727 190.441183 
L 183.354545 186.809451 
L 186.398182 191.962961 
L 189.441818 184.699497 
L 190.963636 187.276252 
L 192.485455 183.644519 
L 194.007273 186.221274 
L 203.138182 164.430881 
L 204.66 167.007636 
L 210.747273 152.480707 
L 212.269091 155.057462 
L 219.878182 136.8988 
L 227.487273 149.782576 
L 229.009091 146.150843 
L 233.574545 153.881109 
L 235.096364 150.249376 
L 245.749091 168.286662 
L 248.792727 161.023197 
L 251.836364 166.176707 
L 253.358182 162.544975 
L 254.88 165.12173 
L 256.401818 161.489998 
L 257.923636 164.066753 
L 267.054545 142.276359 
L 277.707273 160.313645 
L 279.229091 156.681912 
L 280.750909 159.258667 
L 282.272727 155.626935 
L 283.794545 158.20369 
L 285.316364 154.571958 
L 286.838182 157.148713 
L 291.403636 146.253516 
L 295.969091 153.983781 
L 300.534545 143.088584 
L 308.143636 155.97236 
L 309.665455 152.340627 
L 314.230909 160.070893 
L 315.752727 156.43916 
L 317.274545 159.015915 
L 320.318182 151.752451 
L 324.883636 159.482716 
L 329.449091 148.587519 
L 332.492727 153.741029 
L 334.014545 150.109297 
L 340.101818 160.416317 
L 341.623636 156.784585 
L 344.667273 161.938095 
L 346.189091 158.306363 
L 350.754545 166.036628 
L 355.32 155.141431 
L 356.841818 157.718186 
L 359.885455 150.454722 
L 362.929091 155.608232 
L 367.494545 144.713035 
L 370.538182 149.866545 
L 372.06 146.234813 
L 373.581818 148.811568 
L 373.581818 148.811568 
" style="fill:none;stroke:#feffb3;stroke-linecap:square;stroke-width:1.5;"/>
   </g>
   <g id="line2d_41">
    <path clip-path="url(#p4b9f1ed472)" d="M 69.218182 217.058366 
L 72.261818 222.211876 
L 73.783636 218.580143 
L 75.305455 221.156899 
L 76.827273 217.525166 
L 84.436364 230.408942 
L 89.001818 219.513745 
L 101.176364 240.127785 
L 102.698182 236.496053 
L 104.22 239.072808 
L 105.741818 235.441076 
L 107.263636 238.017831 
L 108.785455 234.386098 
L 113.350909 242.116364 
L 117.916364 231.221167 
L 122.481818 238.951432 
L 125.525455 231.687967 
L 127.047273 234.264722 
L 128.569091 230.63299 
L 130.090909 233.209745 
L 133.134545 225.946281 
L 134.656364 228.523036 
L 136.178182 224.891304 
L 143.787273 237.775079 
L 149.874545 223.24815 
L 151.396364 225.824905 
L 154.44 218.56144 
L 157.483636 223.71495 
L 162.049091 212.819753 
L 163.570909 215.396509 
L 169.658182 200.869579 
L 172.701818 206.02309 
L 181.832727 184.232696 
L 183.354545 186.809451 
L 184.876364 183.177719 
L 186.398182 185.754474 
L 187.92 182.122741 
L 190.963636 187.276252 
L 195.529091 176.381055 
L 197.050909 178.95781 
L 198.572727 175.326078 
L 201.616364 180.479588 
L 204.66 173.216123 
L 206.181818 175.792878 
L 210.747273 164.897681 
L 212.269091 167.474436 
L 213.790909 163.842704 
L 215.312727 166.419459 
L 218.356364 159.155995 
L 222.921818 166.88626 
L 227.487273 155.991063 
L 232.052727 163.721328 
L 233.574545 160.089596 
L 236.618182 165.243106 
L 238.14 161.611374 
L 242.705455 169.341639 
L 244.227273 165.709907 
L 245.749091 168.286662 
L 248.792727 161.023197 
L 251.836364 166.176707 
L 257.923636 151.649778 
L 259.445455 154.226533 
L 264.010909 143.331336 
L 265.532727 145.908091 
L 268.576364 138.644627 
L 270.098182 141.221382 
L 271.62 137.58965 
L 276.185455 145.319915 
L 277.707273 141.688183 
L 288.36 159.725468 
L 289.881818 156.093736 
L 294.447273 163.824001 
L 297.490909 156.560536 
L 300.534545 161.714046 
L 302.056364 158.082314 
L 303.578182 160.659069 
L 305.1 157.027337 
L 306.621818 159.604092 
L 308.143636 155.97236 
L 311.187273 161.12587 
L 312.709091 157.494137 
L 314.230909 160.070893 
L 318.796364 149.175696 
L 320.318182 151.752451 
L 326.405455 137.225522 
L 327.927273 139.802277 
L 332.492727 128.90708 
L 335.536364 134.06059 
L 337.058182 130.428858 
L 338.58 133.005613 
L 340.101818 129.373881 
L 343.145455 134.527391 
L 346.189091 127.263926 
L 347.710909 129.840681 
L 349.232727 126.208949 
L 350.754545 128.785704 
L 353.798182 121.522239 
L 355.32 124.098994 
L 359.885455 113.203798 
L 361.407273 115.780553 
L 362.929091 112.14882 
L 364.450909 114.725575 
L 367.494545 107.462111 
L 369.016364 110.038866 
L 372.06 102.775401 
L 373.581818 105.352156 
L 373.581818 105.352156 
" style="fill:none;stroke:#bfbbd9;stroke-linecap:square;stroke-width:1.5;"/>
   </g>
   <g id="line2d_42">
    <path clip-path="url(#p4b9f1ed472)" d="M 69.218182 217.058366 
L 72.261818 222.211876 
L 73.783636 218.580143 
L 75.305455 221.156899 
L 76.827273 217.525166 
L 79.870909 222.678676 
L 84.436364 211.78348 
L 87.48 216.93699 
L 93.567273 202.410061 
L 96.610909 207.563571 
L 99.654545 200.300106 
L 104.22 208.030371 
L 105.741818 204.398639 
L 113.350909 217.282414 
L 114.872727 213.650682 
L 117.916364 218.804192 
L 119.438182 215.17246 
L 120.96 217.749215 
L 124.003636 210.48575 
L 125.525455 213.062505 
L 128.569091 205.799041 
L 130.090909 208.375796 
L 131.612727 204.744064 
L 134.656364 209.897574 
L 139.221818 199.002377 
L 140.743636 201.579132 
L 143.787273 194.315667 
L 145.309091 196.892423 
L 146.830909 193.26069 
L 148.352727 195.837445 
L 149.874545 192.205713 
L 151.396364 194.782468 
L 154.44 187.519004 
L 155.961818 190.095759 
L 157.483636 186.464026 
L 162.049091 194.194291 
L 163.570909 190.562559 
L 168.136364 198.292824 
L 169.658182 194.661092 
L 177.267273 207.544867 
L 181.832727 196.649671 
L 189.441818 209.533446 
L 190.963636 205.901714 
L 192.485455 208.478469 
L 195.529091 201.215004 
L 197.050909 203.791759 
L 200.094545 196.528295 
L 201.616364 199.10505 
L 203.138182 195.473317 
L 207.703636 203.203583 
L 210.747273 195.940118 
L 212.269091 198.516873 
L 213.790909 194.885141 
L 216.834545 200.038651 
L 219.878182 192.775186 
L 222.921818 197.928696 
L 227.487273 187.0335 
L 229.009091 189.610255 
L 233.574545 178.715058 
L 236.618182 183.868568 
L 238.14 180.236836 
L 239.661818 182.813591 
L 248.792727 161.023197 
L 251.836364 166.176707 
L 256.401818 155.28151 
L 260.967273 163.011776 
L 270.098182 141.221382 
L 273.141818 146.374892 
L 274.663636 142.74316 
L 277.707273 147.89667 
L 279.229091 144.264938 
L 282.272727 149.418448 
L 283.794545 145.786715 
L 291.403636 158.670491 
L 292.925455 155.038758 
L 294.447273 157.615513 
L 295.969091 153.983781 
L 299.012727 159.137291 
L 303.578182 148.242094 
L 305.1 150.81885 
L 306.621818 147.187117 
L 308.143636 149.763872 
L 309.665455 146.13214 
L 311.187273 148.708895 
L 312.709091 145.077163 
L 323.361818 163.114448 
L 324.883636 159.482716 
L 326.405455 162.059471 
L 327.927273 158.427739 
L 332.492727 166.158004 
L 341.623636 144.36761 
L 346.189091 152.097875 
L 350.754545 141.202679 
L 352.276364 143.779434 
L 355.32 136.515969 
L 356.841818 139.092724 
L 358.363636 135.460992 
L 359.885455 138.037747 
L 365.972727 123.510818 
L 373.581818 136.394593 
L 373.581818 136.394593 
" style="fill:none;stroke:#fa8174;stroke-linecap:square;stroke-width:1.5;"/>
   </g>
   <g id="line2d_43">
    <path clip-path="url(#p4b9f1ed472)" d="M 69.218182 217.058366 
L 70.74 219.635121 
L 72.261818 216.003388 
L 73.783636 218.580143 
L 75.305455 214.948411 
L 76.827273 217.525166 
L 78.349091 213.893434 
L 82.914545 221.623699 
L 84.436364 217.991967 
L 85.958182 220.568722 
L 89.001818 213.305257 
L 92.045455 218.458768 
L 93.567273 214.827035 
L 95.089091 217.40379 
L 99.654545 206.508593 
L 101.176364 209.085349 
L 116.394545 172.768026 
L 119.438182 177.921536 
L 120.96 174.289804 
L 122.481818 176.866559 
L 124.003636 173.234826 
L 125.525455 175.811581 
L 127.047273 172.179849 
L 130.090909 177.333359 
L 139.221818 155.542966 
L 140.743636 158.119721 
L 142.265455 154.487988 
L 143.787273 157.064743 
L 146.830909 149.801279 
L 151.396364 157.531544 
L 152.918182 153.899812 
L 157.483636 161.630077 
L 159.005455 157.998345 
L 160.527273 160.5751 
L 162.049091 156.943368 
L 166.614545 164.673633 
L 168.136364 161.0419 
L 171.18 166.195411 
L 172.701818 162.563678 
L 174.223636 165.140433 
L 175.745455 161.508701 
L 178.789091 166.662211 
L 183.354545 155.767014 
L 184.876364 158.343769 
L 186.398182 154.712037 
L 187.92 157.288792 
L 189.441818 153.65706 
L 194.007273 161.387325 
L 195.529091 157.755593 
L 198.572727 162.909103 
L 200.094545 159.277371 
L 203.138182 164.430881 
L 204.66 160.799148 
L 207.703636 165.952659 
L 210.747273 158.689194 
L 213.790909 163.842704 
L 216.834545 156.57924 
L 219.878182 161.73275 
L 222.921818 154.469285 
L 225.965455 159.622795 
L 230.530909 148.727598 
L 236.618182 159.034619 
L 238.14 155.402886 
L 239.661818 157.979641 
L 241.183636 154.347909 
L 244.227273 159.501419 
L 248.792727 148.606222 
L 251.836364 153.759733 
L 256.401818 142.864536 
L 257.923636 145.441291 
L 259.445455 141.809559 
L 260.967273 144.386314 
L 271.62 118.964188 
L 273.141818 121.540943 
L 274.663636 117.90921 
L 279.229091 125.639476 
L 286.838182 107.480814 
L 288.36 110.057569 
L 292.925455 99.162372 
L 295.969091 104.315883 
L 299.012727 97.052418 
L 300.534545 99.629173 
L 302.056364 95.997441 
L 303.578182 98.574196 
L 305.1 94.942464 
L 306.621818 97.519219 
L 308.143636 93.887486 
L 309.665455 96.464241 
L 311.187273 92.832509 
L 312.709091 95.409264 
L 315.752727 88.1458 
L 317.274545 90.722555 
L 323.361818 76.195626 
L 326.405455 81.349136 
L 327.927273 77.717403 
L 330.970909 82.870914 
L 332.492727 79.239181 
L 334.014545 81.815936 
L 335.536364 78.184204 
L 338.58 83.337714 
L 341.623636 76.07425 
L 343.145455 78.651005 
L 349.232727 64.124076 
L 352.276364 69.277586 
L 355.32 62.014121 
L 361.407273 72.321141 
L 364.450909 65.057677 
L 365.972727 67.634432 
L 373.581818 49.47577 
L 373.581818 49.47577 
" style="fill:none;stroke:#81b1d2;stroke-linecap:square;stroke-width:1.5;"/>
   </g>
   <g id="line2d_44">
    <path clip-path="url(#p4b9f1ed472)" d="M 69.218182 217.058366 
L 70.74 213.426633 
L 72.261818 216.003388 
L 73.783636 212.371656 
L 78.349091 220.101921 
L 79.870909 216.470189 
L 82.914545 221.623699 
L 85.958182 214.360235 
L 89.001818 219.513745 
L 92.045455 212.25028 
L 98.132727 222.5573 
L 108.785455 197.135174 
L 110.307273 199.71193 
L 113.350909 192.448465 
L 120.96 205.33224 
L 122.481818 201.700508 
L 125.525455 206.854018 
L 127.047273 203.222286 
L 130.090909 208.375796 
L 131.612727 204.744064 
L 136.178182 212.474329 
L 137.7 208.842597 
L 139.221818 211.419352 
L 140.743636 207.787619 
L 146.830909 218.09464 
L 151.396364 207.199443 
L 152.918182 209.776198 
L 154.44 206.144466 
L 155.961818 208.721221 
L 157.483636 205.089488 
L 159.005455 207.666243 
L 160.527273 204.034511 
L 162.049091 206.611266 
L 165.092727 199.347802 
L 166.614545 201.924557 
L 168.136364 198.292824 
L 169.658182 200.869579 
L 177.267273 182.710918 
L 178.789091 185.287673 
L 180.310909 181.655941 
L 187.92 194.539716 
L 190.963636 187.276252 
L 192.485455 189.853007 
L 195.529091 182.589542 
L 198.572727 187.743052 
L 201.616364 180.479588 
L 203.138182 183.056343 
L 204.66 179.42461 
L 207.703636 184.578121 
L 209.225455 180.946388 
L 212.269091 186.099898 
L 213.790909 182.468166 
L 218.356364 190.198431 
L 221.4 182.934967 
L 222.921818 185.511722 
L 230.530909 167.35306 
L 233.574545 172.506571 
L 235.096364 168.874838 
L 236.618182 171.451593 
L 238.14 167.819861 
L 239.661818 170.396616 
L 248.792727 148.606222 
L 251.836364 153.759733 
L 254.88 146.496268 
L 259.445455 154.226533 
L 260.967273 150.594801 
L 264.010909 155.748311 
L 271.62 137.58965 
L 276.185455 145.319915 
L 279.229091 138.05645 
L 280.750909 140.633205 
L 282.272727 137.001473 
L 283.794545 139.578228 
L 285.316364 135.946496 
L 286.838182 138.523251 
L 291.403636 127.628054 
L 299.012727 140.511829 
L 305.1 125.9849 
L 309.665455 133.715165 
L 312.709091 126.451701 
L 314.230909 129.028456 
L 317.274545 121.764991 
L 321.84 129.495257 
L 323.361818 125.863524 
L 324.883636 128.440279 
L 326.405455 124.808547 
L 327.927273 127.385302 
L 329.449091 123.75357 
L 330.970909 126.330325 
L 340.101818 104.539931 
L 343.145455 109.693441 
L 344.667273 106.061709 
L 349.232727 113.791974 
L 352.276364 106.52851 
L 362.929091 124.565795 
L 364.450909 120.934063 
L 372.06 133.817838 
L 373.581818 130.186106 
L 373.581818 130.186106 
" style="fill:none;stroke:#fdb462;stroke-linecap:square;stroke-width:1.5;"/>
   </g>
   <g id="line2d_45">
    <path clip-path="url(#p4b9f1ed472)" d="M 69.218182 217.058366 
L 76.827273 229.942141 
L 79.870909 222.678676 
L 81.392727 225.255431 
L 82.914545 221.623699 
L 85.958182 226.777209 
L 90.523636 215.882012 
L 93.567273 221.035523 
L 95.089091 217.40379 
L 99.654545 225.134055 
L 102.698182 217.870591 
L 105.741818 223.024101 
L 107.263636 219.392369 
L 108.785455 221.969124 
L 111.829091 214.705659 
L 116.394545 222.435924 
L 117.916364 218.804192 
L 119.438182 221.380947 
L 120.96 217.749215 
L 122.481818 220.32597 
L 125.525455 213.062505 
L 127.047273 215.63926 
L 128.569091 212.007528 
L 130.090909 214.584283 
L 133.134545 207.320819 
L 134.656364 209.897574 
L 137.7 202.634109 
L 143.787273 212.941129 
L 146.830909 205.677665 
L 148.352727 208.25442 
L 149.874545 204.622688 
L 152.918182 209.776198 
L 154.44 206.144466 
L 157.483636 211.297976 
L 162.049091 200.402779 
L 165.092727 205.556289 
L 168.136364 198.292824 
L 169.658182 200.869579 
L 171.18 197.237847 
L 172.701818 199.814602 
L 177.267273 188.919405 
L 180.310909 194.072916 
L 184.876364 183.177719 
L 187.92 188.331229 
L 189.441818 184.699497 
L 192.485455 189.853007 
L 194.007273 186.221274 
L 197.050909 191.374784 
L 198.572727 187.743052 
L 201.616364 192.896562 
L 203.138182 189.26483 
L 206.181818 194.41834 
L 212.269091 179.891411 
L 215.312727 185.044921 
L 216.834545 181.413189 
L 218.356364 183.989944 
L 221.4 176.726479 
L 229.009091 189.610255 
L 230.530909 185.978522 
L 236.618182 196.285543 
L 238.14 192.65381 
L 242.705455 200.384076 
L 247.270909 189.488879 
L 248.792727 192.065634 
L 251.836364 184.802169 
L 260.967273 200.2627 
L 262.489091 196.630967 
L 265.532727 201.784477 
L 270.098182 190.889281 
L 273.141818 196.042791 
L 274.663636 192.411058 
L 276.185455 194.987813 
L 277.707273 191.356081 
L 279.229091 193.932836 
L 280.750909 190.301104 
L 283.794545 195.454614 
L 291.403636 177.295953 
L 292.925455 179.872708 
L 294.447273 176.240975 
L 297.490909 181.394486 
L 299.012727 177.762753 
L 300.534545 180.339508 
L 303.578182 173.076044 
L 308.143636 180.806309 
L 315.752727 162.647648 
L 317.274545 165.224403 
L 320.318182 157.960938 
L 321.84 160.537693 
L 329.449091 142.379032 
L 330.970909 144.955787 
L 337.058182 130.428858 
L 340.101818 135.582368 
L 341.623636 131.950636 
L 343.145455 134.527391 
L 344.667273 130.895658 
L 346.189091 133.472413 
L 347.710909 129.840681 
L 349.232727 132.417436 
L 358.363636 110.627043 
L 359.885455 113.203798 
L 361.407273 109.572065 
L 364.450909 114.725575 
L 365.972727 111.093843 
L 369.016364 116.247353 
L 373.581818 105.352156 
L 373.581818 105.352156 
" style="fill:none;stroke:#b3de69;stroke-linecap:square;stroke-width:1.5;"/>
   </g>
   <g id="line2d_46">
    <path clip-path="url(#p4b9f1ed472)" d="M 69.218182 217.058366 
L 70.74 213.426633 
L 72.261818 216.003388 
L 79.870909 197.844727 
L 81.392727 200.421482 
L 82.914545 196.78975 
L 84.436364 199.366505 
L 85.958182 195.734773 
L 89.001818 200.888283 
L 90.523636 197.25655 
L 95.089091 204.986816 
L 99.654545 194.091619 
L 101.176364 196.668374 
L 104.22 189.404909 
L 108.785455 197.135174 
L 111.829091 189.87171 
L 113.350909 192.448465 
L 116.394545 185.185 
L 120.96 192.915266 
L 122.481818 189.283533 
L 124.003636 191.860288 
L 125.525455 188.228556 
L 127.047273 190.805311 
L 128.569091 187.173579 
L 133.134545 194.903844 
L 136.178182 187.64038 
L 139.221818 192.79389 
L 140.743636 189.162157 
L 143.787273 194.315667 
L 146.830909 187.052203 
L 151.396364 194.782468 
L 155.961818 183.887271 
L 159.005455 189.040781 
L 168.136364 167.250388 
L 172.701818 174.980653 
L 174.223636 171.348921 
L 180.310909 181.655941 
L 197.050909 141.706886 
L 198.572727 144.283641 
L 206.181818 126.12498 
L 207.703636 128.701735 
L 210.747273 121.43827 
L 213.790909 126.59178 
L 218.356364 115.696583 
L 222.921818 123.426848 
L 224.443636 119.795116 
L 225.965455 122.371871 
L 230.530909 111.476674 
L 232.052727 114.053429 
L 233.574545 110.421697 
L 238.14 118.151962 
L 239.661818 114.52023 
L 242.705455 119.67374 
L 248.792727 105.146811 
L 250.314545 107.723566 
L 253.358182 100.460102 
L 262.489091 115.920632 
L 264.010909 112.2889 
L 265.532727 114.865655 
L 267.054545 111.233922 
L 268.576364 113.810678 
L 270.098182 110.178945 
L 271.62 112.7557 
L 276.185455 101.860503 
L 279.229091 107.014014 
L 280.750909 103.382281 
L 283.794545 108.535791 
L 285.316364 104.904059 
L 286.838182 107.480814 
L 288.36 103.849082 
L 291.403636 109.002592 
L 294.447273 101.739127 
L 295.969091 104.315883 
L 297.490909 100.68415 
L 303.578182 110.991171 
L 306.621818 103.727706 
L 308.143636 106.304461 
L 317.274545 84.514067 
L 318.796364 87.090822 
L 320.318182 83.45909 
L 324.883636 91.189355 
L 327.927273 83.925891 
L 332.492727 91.656156 
L 334.014545 88.024424 
L 338.58 95.754689 
L 347.710909 73.964295 
L 349.232727 76.54105 
L 350.754545 72.909318 
L 356.841818 83.216338 
L 359.885455 75.952874 
L 361.407273 78.529629 
L 362.929091 74.897896 
L 364.450909 77.474651 
L 369.016364 66.579455 
L 370.538182 69.15621 
L 373.581818 61.892745 
L 373.581818 61.892745 
" style="fill:none;stroke:#bc82bd;stroke-linecap:square;stroke-width:1.5;"/>
   </g>
   <g id="line2d_47">
    <path clip-path="url(#p4b9f1ed472)" d="M 69.218182 217.058366 
L 70.74 219.635121 
L 84.436364 186.94953 
L 85.958182 189.526285 
L 89.001818 182.262821 
L 92.045455 187.416331 
L 104.22 158.362473 
L 108.785455 166.092738 
L 110.307273 162.461006 
L 111.829091 165.037761 
L 117.916364 150.510832 
L 124.003636 160.817852 
L 127.047273 153.554387 
L 128.569091 156.131142 
L 130.090909 152.49941 
L 133.134545 157.65292 
L 134.656364 154.021188 
L 142.265455 166.904963 
L 143.787273 163.273231 
L 145.309091 165.849986 
L 148.352727 158.586521 
L 152.918182 166.316786 
L 154.44 162.685054 
L 155.961818 165.261809 
L 157.483636 161.630077 
L 169.658182 182.244117 
L 171.18 178.612385 
L 172.701818 181.18914 
L 175.745455 173.925676 
L 181.832727 184.232696 
L 183.354545 180.600964 
L 184.876364 183.177719 
L 194.007273 161.387325 
L 203.138182 176.847855 
L 204.66 173.216123 
L 206.181818 175.792878 
L 207.703636 172.161146 
L 209.225455 174.737901 
L 213.790909 163.842704 
L 215.312727 166.419459 
L 219.878182 155.524262 
L 225.965455 165.831283 
L 227.487273 162.19955 
L 229.009091 164.776305 
L 230.530909 161.144573 
L 236.618182 171.451593 
L 238.14 167.819861 
L 241.183636 172.973371 
L 244.227273 165.709907 
L 248.792727 173.440172 
L 250.314545 169.808439 
L 251.836364 172.385195 
L 254.88 165.12173 
L 256.401818 167.698485 
L 257.923636 164.066753 
L 262.489091 171.797018 
L 265.532727 164.533553 
L 271.62 174.840574 
L 274.663636 167.577109 
L 277.707273 172.730619 
L 279.229091 169.098887 
L 280.750909 171.675642 
L 282.272727 168.04391 
L 285.316364 173.19742 
L 286.838182 169.565688 
L 288.36 172.142443 
L 292.925455 161.247246 
L 297.490909 168.977511 
L 303.578182 154.450582 
L 308.143636 162.180847 
L 314.230909 147.653918 
L 317.274545 152.807428 
L 318.796364 149.175696 
L 321.84 154.329206 
L 323.361818 150.697474 
L 334.014545 168.734759 
L 335.536364 165.103027 
L 340.101818 172.833292 
L 341.623636 169.20156 
L 347.710909 179.50858 
L 352.276364 168.613383 
L 355.32 173.766893 
L 356.841818 170.135161 
L 358.363636 172.711916 
L 362.929091 161.816719 
L 364.450909 164.393474 
L 367.494545 157.13001 
L 369.016364 159.706765 
L 370.538182 156.075032 
L 373.581818 161.228542 
L 373.581818 161.228542 
" style="fill:none;stroke:#ccebc4;stroke-linecap:square;stroke-width:1.5;"/>
   </g>
   <g id="line2d_48">
    <path clip-path="url(#p4b9f1ed472)" d="M 69.218182 217.058366 
L 78.349091 232.518896 
L 79.870909 228.887164 
L 81.392727 231.463919 
L 85.958182 220.568722 
L 92.045455 230.875742 
L 96.610909 219.980545 
L 101.176364 227.710811 
L 102.698182 224.079078 
L 110.307273 236.962854 
L 111.829091 233.331121 
L 113.350909 235.907876 
L 116.394545 228.644412 
L 117.916364 231.221167 
L 124.003636 216.694238 
L 125.525455 219.270993 
L 128.569091 212.007528 
L 142.265455 235.198324 
L 145.309091 227.934859 
L 146.830909 230.511614 
L 148.352727 226.879882 
L 149.874545 229.456637 
L 152.918182 222.193172 
L 157.483636 229.923438 
L 159.005455 226.291705 
L 160.527273 228.86846 
L 162.049091 225.236728 
L 168.136364 235.543748 
L 171.18 228.280284 
L 172.701818 230.857039 
L 175.745455 223.593574 
L 178.789091 228.747084 
L 184.876364 214.220155 
L 190.963636 224.527176 
L 192.485455 220.895443 
L 194.007273 223.472198 
L 195.529091 219.840466 
L 198.572727 224.993976 
L 200.094545 221.362244 
L 203.138182 226.515754 
L 204.66 222.884022 
L 209.225455 230.614287 
L 212.269091 223.350822 
L 216.834545 231.081088 
L 218.356364 227.449355 
L 221.4 232.602865 
L 227.487273 218.075936 
L 229.009091 220.652691 
L 235.096364 206.125762 
L 238.14 211.279272 
L 239.661818 207.64754 
L 242.705455 212.80105 
L 244.227273 209.169318 
L 245.749091 211.746073 
L 247.270909 208.114341 
L 250.314545 213.267851 
L 254.88 202.372654 
L 256.401818 204.949409 
L 257.923636 201.317677 
L 267.054545 216.778207 
L 273.141818 202.251278 
L 274.663636 204.828033 
L 280.750909 190.301104 
L 282.272727 192.877859 
L 286.838182 181.982662 
L 288.36 184.559417 
L 289.881818 180.927685 
L 297.490909 193.81146 
L 299.012727 190.179728 
L 306.621818 203.063503 
L 308.143636 199.431771 
L 311.187273 204.585281 
L 312.709091 200.953549 
L 314.230909 203.530304 
L 315.752727 199.898572 
L 317.274545 202.475327 
L 318.796364 198.843594 
L 329.449091 216.88088 
L 330.970909 213.249147 
L 334.014545 218.402658 
L 335.536364 214.770925 
L 343.145455 227.654701 
L 344.667273 224.022968 
L 350.754545 234.329989 
L 353.798182 227.066524 
L 358.363636 234.796789 
L 364.450909 220.26986 
L 367.494545 225.42337 
L 369.016364 221.791638 
L 370.538182 224.368393 
L 373.581818 217.104928 
L 373.581818 217.104928 
" style="fill:none;stroke:#ffed6f;stroke-linecap:square;stroke-width:1.5;"/>
   </g>
   <g id="patch_3">
    <path d="M 54 252 
L 54 34.56 
" style="fill:none;stroke:#ffffff;stroke-linecap:square;stroke-linejoin:miter;stroke-width:0.8;"/>
   </g>
   <g id="patch_4">
    <path d="M 388.8 252 
L 388.8 34.56 
" style="fill:none;stroke:#ffffff;stroke-linecap:square;stroke-linejoin:miter;stroke-width:0.8;"/>
   </g>
   <g id="patch_5">
    <path d="M 54 252 
L 388.8 252 
" style="fill:none;stroke:#ffffff;stroke-linecap:square;stroke-linejoin:miter;stroke-width:0.8;"/>
   </g>
   <g id="patch_6">
    <path d="M 54 34.56 
L 388.8 34.56 
" style="fill:none;stroke:#ffffff;stroke-linecap:square;stroke-linejoin:miter;stroke-width:0.8;"/>
   </g>
   <g id="text_17">
    <!-- Growth of a bankroll over successive Kelly bets -->
    <defs>
     <path d="M 59.515625 10.40625 
L 59.515625 29.984375 
L 43.40625 29.984375 
L 43.40625 38.09375 
L 69.28125 38.09375 
L 69.28125 6.78125 
Q 63.578125 2.734375 56.6875 0.65625 
Q 49.8125 -1.421875 42 -1.421875 
Q 24.90625 -1.421875 15.25 8.5625 
Q 5.609375 18.5625 5.609375 36.375 
Q 5.609375 54.25 15.25 64.234375 
Q 24.90625 74.21875 42 74.21875 
Q 49.125 74.21875 55.546875 72.453125 
Q 61.96875 70.703125 67.390625 67.28125 
L 67.390625 56.78125 
Q 61.921875 61.421875 55.765625 63.765625 
Q 49.609375 66.109375 42.828125 66.109375 
Q 29.4375 66.109375 22.71875 58.640625 
Q 16.015625 51.171875 16.015625 36.375 
Q 16.015625 21.625 22.71875 14.15625 
Q 29.4375 6.6875 42.828125 6.6875 
Q 48.046875 6.6875 52.140625 7.59375 
Q 56.25 8.5 59.515625 10.40625 
z
" id="DejaVuSans-71"/>
     <path d="M 4.203125 54.6875 
L 13.1875 54.6875 
L 24.421875 12.015625 
L 35.59375 54.6875 
L 46.1875 54.6875 
L 57.421875 12.015625 
L 68.609375 54.6875 
L 77.59375 54.6875 
L 63.28125 0 
L 52.6875 0 
L 40.921875 44.828125 
L 29.109375 0 
L 18.5 0 
z
" id="DejaVuSans-119"/>
     <path d="M 18.3125 70.21875 
L 18.3125 54.6875 
L 36.8125 54.6875 
L 36.8125 47.703125 
L 18.3125 47.703125 
L 18.3125 18.015625 
Q 18.3125 11.328125 20.140625 9.421875 
Q 21.96875 7.515625 27.59375 7.515625 
L 36.8125 7.515625 
L 36.8125 0 
L 27.59375 0 
Q 17.1875 0 13.234375 3.875 
Q 9.28125 7.765625 9.28125 18.015625 
L 9.28125 47.703125 
L 2.6875 47.703125 
L 2.6875 54.6875 
L 9.28125 54.6875 
L 9.28125 70.21875 
z
" id="DejaVuSans-116"/>
     <path d="M 54.890625 33.015625 
L 54.890625 0 
L 45.90625 0 
L 45.90625 32.71875 
Q 45.90625 40.484375 42.875 44.328125 
Q 39.84375 48.1875 33.796875 48.1875 
Q 26.515625 48.1875 22.3125 43.546875 
Q 18.109375 38.921875 18.109375 30.90625 
L 18.109375 0 
L 9.078125 0 
L 9.078125 75.984375 
L 18.109375 75.984375 
L 18.109375 46.1875 
Q 21.34375 51.125 25.703125 53.5625 
Q 30.078125 56 35.796875 56 
Q 45.21875 56 50.046875 50.171875 
Q 54.890625 44.34375 54.890625 33.015625 
z
" id="DejaVuSans-104"/>
     <path id="DejaVuSans-32"/>
     <path d="M 37.109375 75.984375 
L 37.109375 68.5 
L 28.515625 68.5 
Q 23.6875 68.5 21.796875 66.546875 
Q 19.921875 64.59375 19.921875 59.515625 
L 19.921875 54.6875 
L 34.71875 54.6875 
L 34.71875 47.703125 
L 19.921875 47.703125 
L 19.921875 0 
L 10.890625 0 
L 10.890625 47.703125 
L 2.296875 47.703125 
L 2.296875 54.6875 
L 10.890625 54.6875 
L 10.890625 58.5 
Q 10.890625 67.625 15.140625 71.796875 
Q 19.390625 75.984375 28.609375 75.984375 
z
" id="DejaVuSans-102"/>
     <path d="M 48.6875 27.296875 
Q 48.6875 37.203125 44.609375 42.84375 
Q 40.53125 48.484375 33.40625 48.484375 
Q 26.265625 48.484375 22.1875 42.84375 
Q 18.109375 37.203125 18.109375 27.296875 
Q 18.109375 17.390625 22.1875 11.75 
Q 26.265625 6.109375 33.40625 6.109375 
Q 40.53125 6.109375 44.609375 11.75 
Q 48.6875 17.390625 48.6875 27.296875 
z
M 18.109375 46.390625 
Q 20.953125 51.265625 25.265625 53.625 
Q 29.59375 56 35.59375 56 
Q 45.5625 56 51.78125 48.09375 
Q 58.015625 40.1875 58.015625 27.296875 
Q 58.015625 14.40625 51.78125 6.484375 
Q 45.5625 -1.421875 35.59375 -1.421875 
Q 29.59375 -1.421875 25.265625 0.953125 
Q 20.953125 3.328125 18.109375 8.203125 
L 18.109375 0 
L 9.078125 0 
L 9.078125 75.984375 
L 18.109375 75.984375 
z
" id="DejaVuSans-98"/>
     <path d="M 2.984375 54.6875 
L 12.5 54.6875 
L 29.59375 8.796875 
L 46.6875 54.6875 
L 56.203125 54.6875 
L 35.6875 0 
L 23.484375 0 
z
" id="DejaVuSans-118"/>
     <path d="M 44.28125 53.078125 
L 44.28125 44.578125 
Q 40.484375 46.53125 36.375 47.5 
Q 32.28125 48.484375 27.875 48.484375 
Q 21.1875 48.484375 17.84375 46.4375 
Q 14.5 44.390625 14.5 40.28125 
Q 14.5 37.15625 16.890625 35.375 
Q 19.28125 33.59375 26.515625 31.984375 
L 29.59375 31.296875 
Q 39.15625 29.25 43.1875 25.515625 
Q 47.21875 21.78125 47.21875 15.09375 
Q 47.21875 7.46875 41.1875 3.015625 
Q 35.15625 -1.421875 24.609375 -1.421875 
Q 20.21875 -1.421875 15.453125 -0.5625 
Q 10.6875 0.296875 5.421875 2 
L 5.421875 11.28125 
Q 10.40625 8.6875 15.234375 7.390625 
Q 20.0625 6.109375 24.8125 6.109375 
Q 31.15625 6.109375 34.5625 8.28125 
Q 37.984375 10.453125 37.984375 14.40625 
Q 37.984375 18.0625 35.515625 20.015625 
Q 33.0625 21.96875 24.703125 23.78125 
L 21.578125 24.515625 
Q 13.234375 26.265625 9.515625 29.90625 
Q 5.8125 33.546875 5.8125 39.890625 
Q 5.8125 47.609375 11.28125 51.796875 
Q 16.75 56 26.8125 56 
Q 31.78125 56 36.171875 55.265625 
Q 40.578125 54.546875 44.28125 53.078125 
z
" id="DejaVuSans-115"/>
     <path d="M 8.5 21.578125 
L 8.5 54.6875 
L 17.484375 54.6875 
L 17.484375 21.921875 
Q 17.484375 14.15625 20.5 10.265625 
Q 23.53125 6.390625 29.59375 6.390625 
Q 36.859375 6.390625 41.078125 11.03125 
Q 45.3125 15.671875 45.3125 23.6875 
L 45.3125 54.6875 
L 54.296875 54.6875 
L 54.296875 0 
L 45.3125 0 
L 45.3125 8.40625 
Q 42.046875 3.421875 37.71875 1 
Q 33.40625 -1.421875 27.6875 -1.421875 
Q 18.265625 -1.421875 13.375 4.4375 
Q 8.5 10.296875 8.5 21.578125 
z
M 31.109375 56 
z
" id="DejaVuSans-117"/>
     <path d="M 48.78125 52.59375 
L 48.78125 44.1875 
Q 44.96875 46.296875 41.140625 47.34375 
Q 37.3125 48.390625 33.40625 48.390625 
Q 24.65625 48.390625 19.8125 42.84375 
Q 14.984375 37.3125 14.984375 27.296875 
Q 14.984375 17.28125 19.8125 11.734375 
Q 24.65625 6.203125 33.40625 6.203125 
Q 37.3125 6.203125 41.140625 7.25 
Q 44.96875 8.296875 48.78125 10.40625 
L 48.78125 2.09375 
Q 45.015625 0.34375 40.984375 -0.53125 
Q 36.96875 -1.421875 32.421875 -1.421875 
Q 20.0625 -1.421875 12.78125 6.34375 
Q 5.515625 14.109375 5.515625 27.296875 
Q 5.515625 40.671875 12.859375 48.328125 
Q 20.21875 56 33.015625 56 
Q 37.15625 56 41.109375 55.140625 
Q 45.0625 54.296875 48.78125 52.59375 
z
" id="DejaVuSans-99"/>
     <path d="M 9.8125 72.90625 
L 19.671875 72.90625 
L 19.671875 42.09375 
L 52.390625 72.90625 
L 65.09375 72.90625 
L 28.90625 38.921875 
L 67.671875 0 
L 54.6875 0 
L 19.671875 35.109375 
L 19.671875 0 
L 9.8125 0 
z
" id="DejaVuSans-75"/>
     <path d="M 32.171875 -5.078125 
Q 28.375 -14.84375 24.75 -17.8125 
Q 21.140625 -20.796875 15.09375 -20.796875 
L 7.90625 -20.796875 
L 7.90625 -13.28125 
L 13.1875 -13.28125 
Q 16.890625 -13.28125 18.9375 -11.515625 
Q 21 -9.765625 23.484375 -3.21875 
L 25.09375 0.875 
L 2.984375 54.6875 
L 12.5 54.6875 
L 29.59375 11.921875 
L 46.6875 54.6875 
L 56.203125 54.6875 
z
" id="DejaVuSans-121"/>
    </defs>
    <g style="fill:#ffffff;" transform="translate(79.828125 28.56)scale(0.12 -0.12)">
     <use xlink:href="#DejaVuSans-71"/>
     <use x="77.490234" xlink:href="#DejaVuSans-114"/>
     <use x="116.353516" xlink:href="#DejaVuSans-111"/>
     <use x="177.535156" xlink:href="#DejaVuSans-119"/>
     <use x="259.322266" xlink:href="#DejaVuSans-116"/>
     <use x="298.53125" xlink:href="#DejaVuSans-104"/>
     <use x="361.910156" xlink:href="#DejaVuSans-32"/>
     <use x="393.697266" xlink:href="#DejaVuSans-111"/>
     <use x="454.878906" xlink:href="#DejaVuSans-102"/>
     <use x="490.083984" xlink:href="#DejaVuSans-32"/>
     <use x="521.871094" xlink:href="#DejaVuSans-97"/>
     <use x="583.150391" xlink:href="#DejaVuSans-32"/>
     <use x="614.9375" xlink:href="#DejaVuSans-98"/>
     <use x="678.414062" xlink:href="#DejaVuSans-97"/>
     <use x="739.693359" xlink:href="#DejaVuSans-110"/>
     <use x="803.072266" xlink:href="#DejaVuSans-107"/>
     <use x="860.982422" xlink:href="#DejaVuSans-114"/>
     <use x="899.845703" xlink:href="#DejaVuSans-111"/>
     <use x="961.027344" xlink:href="#DejaVuSans-108"/>
     <use x="988.810547" xlink:href="#DejaVuSans-108"/>
     <use x="1016.59375" xlink:href="#DejaVuSans-32"/>
     <use x="1048.380859" xlink:href="#DejaVuSans-111"/>
     <use x="1109.5625" xlink:href="#DejaVuSans-118"/>
     <use x="1168.742188" xlink:href="#DejaVuSans-101"/>
     <use x="1230.265625" xlink:href="#DejaVuSans-114"/>
     <use x="1271.378906" xlink:href="#DejaVuSans-32"/>
     <use x="1303.166016" xlink:href="#DejaVuSans-115"/>
     <use x="1355.265625" xlink:href="#DejaVuSans-117"/>
     <use x="1418.644531" xlink:href="#DejaVuSans-99"/>
     <use x="1473.625" xlink:href="#DejaVuSans-99"/>
     <use x="1528.605469" xlink:href="#DejaVuSans-101"/>
     <use x="1590.128906" xlink:href="#DejaVuSans-115"/>
     <use x="1642.228516" xlink:href="#DejaVuSans-115"/>
     <use x="1694.328125" xlink:href="#DejaVuSans-105"/>
     <use x="1722.111328" xlink:href="#DejaVuSans-118"/>
     <use x="1781.291016" xlink:href="#DejaVuSans-101"/>
     <use x="1842.814453" xlink:href="#DejaVuSans-32"/>
     <use x="1874.601562" xlink:href="#DejaVuSans-75"/>
     <use x="1935.177734" xlink:href="#DejaVuSans-101"/>
     <use x="1996.701172" xlink:href="#DejaVuSans-108"/>
     <use x="2024.484375" xlink:href="#DejaVuSans-108"/>
     <use x="2052.267578" xlink:href="#DejaVuSans-121"/>
     <use x="2111.447266" xlink:href="#DejaVuSans-32"/>
     <use x="2143.234375" xlink:href="#DejaVuSans-98"/>
     <use x="2206.710938" xlink:href="#DejaVuSans-101"/>
     <use x="2268.234375" xlink:href="#DejaVuSans-116"/>
     <use x="2307.443359" xlink:href="#DejaVuSans-115"/>
    </g>
   </g>
  </g>
 </g>
 <defs>
  <clipPath id="p4b9f1ed472">
   <rect height="217.44" width="334.8" x="54" y="34.56"/>
  </clipPath>
 </defs>
</svg>
